<?xml version="1.0" standalone="no"?>
<!DOCTYPE svg PUBLIC "-//W3C//DTD SVG 20010904//EN"
 "http://www.w3.org/TR/2001/REC-SVG-20010904/DTD/svg10.dtd">
<svg version="1.0" xmlns="http://www.w3.org/2000/svg"
 width="636.000000pt" height="636.000000pt" viewBox="0 0 636.000000 636.000000"
 preserveAspectRatio="xMidYMid meet">
<metadata>
Created by potrace 1.11, written by Peter Selinger 2001-2013
</metadata>
<g transform="translate(0.000000,636.000000) scale(0.100000,-0.100000)"
fill="#000000" stroke="none">
<path d="M2467 6345 c-3 -7 -14 -12 -24 -11 -10 2 -12 1 -5 -1 6 -3 12 -9 12
-14 0 -6 -6 -7 -12 -3 -7 4 -9 3 -5 -1 14 -16 36 -14 30 3 -4 13 -3 14 5 3 7
-9 12 -10 16 -2 4 6 2 11 -4 11 -6 0 -8 5 -4 11 4 8 9 7 15 -2 5 -8 2 -20 -8
-31 -9 -10 -16 -28 -17 -40 -1 -16 -7 -22 -19 -20 -10 2 -17 -3 -17 -13 0 -8
5 -15 11 -15 5 0 8 3 6 8 -3 4 6 8 19 8 30 2 31 -11 3 -27 -17 -9 -20 -8 -14
2 6 8 4 10 -6 4 -32 -19 -47 -38 -42 -53 5 -14 2 -14 -18 3 -13 11 -18 13 -11
5 6 -8 12 -18 12 -23 0 -4 -6 -5 -12 -1 -10 6 -10 4 0 -7 19 -21 14 -34 -6
-16 -10 10 -22 17 -27 17 -4 0 9 -13 30 -30 21 -16 42 -30 48 -30 6 0 8 -3 5
-6 -4 -3 -16 0 -29 6 -19 11 -21 10 -16 -4 6 -14 -3 -21 -25 -17 -5 0 -8 -5
-8 -13 0 -8 -5 -18 -12 -22 -6 -4 -8 -3 -5 3 3 5 8 21 11 36 4 24 1 29 -20 26
-4 0 -11 5 -16 13 -8 10 -9 9 -4 -4 3 -10 1 -20 -4 -23 -6 -4 -10 -1 -10 6 0
9 -3 9 -14 0 -10 -8 -16 -9 -21 -1 -3 5 -12 10 -18 10 -8 0 -8 -3 1 -9 11 -7
10 -10 -3 -15 -23 -9 -27 -8 -19 5 3 6 0 15 -7 20 -23 15 -34 10 -13 -6 16
-12 16 -14 3 -15 -17 0 -42 23 -34 32 3 2 -2 5 -10 5 -8 0 -12 -4 -10 -8 3 -4
-2 -10 -11 -13 -11 -4 -15 -2 -11 7 8 21 -19 16 -50 -8 l-27 -22 24 1 c14 0
25 6 25 13 0 19 12 25 19 8 3 -9 -1 -18 -9 -21 -8 -4 -12 -10 -9 -15 3 -5 15
-4 27 3 24 13 56 18 55 9 -2 -19 4 -24 11 -12 8 12 13 12 24 3 11 -10 17 -9
26 2 7 8 26 13 46 11 19 -1 32 2 29 6 -2 4 0 10 4 13 5 3 8 -5 7 -17 -4 -35
-5 -37 -15 -37 -5 0 -6 8 -3 18 6 15 5 15 -10 4 -8 -8 -13 -21 -10 -30 4 -14
3 -15 -5 -2 -8 10 -8 18 0 27 7 9 7 13 0 13 -6 0 -14 -5 -17 -10 -4 -6 -11 -8
-16 -5 -5 4 -9 1 -9 -5 0 -6 -11 -8 -25 -6 -15 3 -25 0 -25 -7 0 -7 -5 -4 -11
6 -5 9 -15 17 -21 17 -9 0 -9 -3 0 -12 16 -16 15 -25 -2 -25 -8 0 -12 6 -9 13
3 9 -3 12 -20 8 -14 -2 -29 0 -32 6 -3 5 -11 10 -18 10 -8 0 -8 -3 1 -12 7 -7
12 -16 12 -20 0 -5 -14 6 -30 24 -30 33 -30 33 -24 7 3 -15 1 -30 -4 -33 -6
-4 -8 2 -5 14 3 12 0 20 -6 20 -7 0 -9 -5 -5 -12 4 -7 -2 -5 -14 5 -17 16 -21
47 -5 47 3 0 3 -6 0 -13 -3 -8 1 -14 8 -14 10 0 11 6 2 24 l-11 24 -13 -23
c-11 -20 -18 -18 -14 5 1 5 -3 6 -8 3 -5 -4 -11 -3 -14 1 -2 5 -2 3 -1 -4 2
-7 -1 -15 -6 -18 -6 -4 -10 -2 -10 4 0 5 -13 9 -30 9 -16 -1 -30 -4 -30 -9 0
-4 11 -6 25 -4 14 1 28 -1 30 -6 3 -4 14 -6 25 -4 19 4 39 -29 26 -42 -3 -4
-6 1 -6 10 0 10 -3 17 -7 17 -12 -1 -44 -27 -44 -37 -1 -4 -3 -10 -6 -13 -4
-3 -3 0 1 7 3 6 -2 16 -11 22 -10 5 -14 13 -10 17 5 5 11 3 15 -3 5 -8 13 -9
22 -3 8 6 13 10 10 11 -3 0 -14 2 -25 4 -12 3 -27 -5 -38 -18 l-18 -22 10 22
c6 12 7 24 2 27 -4 3 -13 -6 -19 -19 -7 -14 -17 -25 -24 -24 -10 0 -10 2 0 6
19 7 14 19 -8 20 -11 1 -18 -2 -15 -8 4 -5 1 -9 -4 -9 -6 0 -11 5 -11 10 0 6
0 13 0 17 -1 12 34 12 47 1 9 -7 13 -7 13 0 0 6 -3 12 -7 15 -5 2 -2 2 5 1 6
-2 12 1 12 6 0 6 -8 10 -17 10 -16 0 -16 2 -3 11 12 9 11 10 -5 4 -35 -12 -40
-10 -38 9 1 13 -2 15 -10 7 -7 -7 -7 -14 1 -24 12 -14 7 -27 -11 -27 -6 0 -7
3 -4 6 9 9 -11 44 -26 44 -8 0 -8 -3 2 -9 10 -7 11 -10 1 -16 -10 -6 -9 -11 5
-22 14 -9 15 -13 4 -13 -12 0 -12 -2 1 -11 13 -9 12 -10 -2 -5 -10 3 -20 1
-23 -4 -4 -6 -11 -10 -17 -10 -5 0 0 9 13 20 22 18 17 26 -13 21 -13 -2 -9 17
5 22 7 2 8 8 3 13 -5 5 -11 4 -13 -4 -3 -6 -9 -10 -14 -7 -5 4 -6 0 -4 -7 4
-9 -2 -14 -15 -14 -15 0 -19 5 -14 21 4 16 3 17 -5 5 -8 -11 -11 -11 -11 -2 0
7 -6 12 -12 10 -20 -4 -59 22 -52 34 5 7 2 8 -6 3 -10 -6 -8 -12 8 -26 12 -9
22 -20 22 -23 0 -10 -24 -2 -40 14 -8 9 -11 10 -6 3 5 -8 6 -17 2 -20 -4 -4
-10 -3 -14 3 -4 5 -14 9 -22 9 -8 0 -19 4 -23 10 -5 6 -7 3 -3 -7 3 -10 0 -21
-7 -25 -14 -9 -19 -43 -6 -43 8 0 13 14 11 31 -1 3 10 5 24 3 16 -1 22 2 17 9
-4 7 1 6 10 -2 14 -11 17 -11 17 0 0 11 2 11 10 -1 5 -8 10 -10 10 -3 0 6 8
10 18 8 9 -1 15 -9 13 -16 -2 -8 -4 -19 -4 -26 0 -8 -6 -9 -17 -3 -9 5 -21 6
-26 2 -5 -4 -6 -3 -1 2 12 16 8 31 -5 18 -9 -9 -15 -9 -27 1 -12 10 -14 9 -8
-5 3 -10 1 -20 -5 -24 -6 -4 -8 -3 -4 4 3 6 2 13 -4 17 -9 6 -14 -8 -11 -28 2
-14 -36 12 -43 28 -3 8 -11 14 -17 13 -6 -2 -14 3 -16 10 -3 6 0 12 7 12 6 0
8 -5 5 -10 -4 -6 -1 -9 7 -8 15 4 38 24 38 34 0 5 -5 3 -12 -4 -23 -23 -31
-12 -9 12 17 18 19 26 10 31 -7 5 -10 4 -6 -2 8 -13 -28 -47 -41 -39 -5 3 -18
-4 -28 -15 -10 -11 -24 -17 -31 -15 -15 6 -46 -22 -38 -34 3 -5 -4 -15 -16
-24 -12 -8 -18 -19 -15 -25 4 -5 2 -12 -4 -16 -5 -3 -10 0 -10 7 0 7 -7 2 -16
-11 -12 -17 -13 -26 -5 -34 15 -15 14 -32 -2 -19 -13 11 -42 11 -53 -1 -4 -3
5 -4 20 -1 17 3 25 0 24 -7 -4 -19 -32 -46 -41 -41 -5 2 -3 -5 4 -15 14 -23
36 -26 44 -6 4 11 -1 13 -18 8 -14 -4 -17 -3 -9 2 23 17 61 76 55 86 -3 6 -1
7 5 3 8 -4 10 -2 6 7 -3 8 0 18 7 23 9 5 10 2 6 -9 -4 -10 0 -20 11 -26 11 -7
12 -11 4 -11 -8 0 -10 -5 -6 -12 5 -9 2 -9 -9 1 -20 16 -23 2 -5 -19 10 -11 9
-11 -6 0 -18 14 -19 13 -13 -2 3 -10 1 -20 -5 -24 -7 -4 -8 -3 -4 4 4 7 3 12
-3 12 -5 0 -10 -15 -11 -32 0 -18 -1 -42 -1 -53 0 -18 -1 -18 -13 4 -9 15 -16
20 -20 12 -4 -6 -4 -11 0 -11 3 0 0 -8 -7 -17 -12 -14 -12 -16 2 -11 9 3 22 2
30 -2 10 -7 7 -9 -11 -8 -14 1 -31 6 -38 11 -7 6 -16 6 -20 2 -4 -4 -1 -10 6
-12 6 -3 12 -9 12 -15 0 -6 -7 -5 -16 3 -13 10 -17 10 -26 -2 -8 -11 -9 -10
-4 4 5 15 2 17 -16 11 -20 -6 -21 -5 -9 10 9 10 18 13 25 7 7 -6 18 -4 30 5
14 10 16 14 5 14 -12 0 -12 2 1 9 8 6 19 7 25 3 5 -3 4 2 -4 12 -9 10 -18 13
-23 8 -8 -8 -11 -17 -17 -52 -1 -3 -5 1 -10 9 -8 12 -12 12 -24 2 -9 -7 -18
-8 -21 -2 -3 5 -1 11 6 13 7 3 4 7 -7 12 -11 4 -16 4 -12 0 4 -4 -2 -14 -14
-22 -15 -10 -24 -11 -32 -3 -19 19 -28 12 -10 -7 10 -10 25 -19 33 -19 39 -1
41 -2 28 -23 -7 -11 -17 -20 -22 -20 -6 0 -5 5 2 12 7 7 12 17 12 22 -1 6 -9
1 -19 -11 -17 -21 -20 -21 -26 -5 -6 16 -7 16 -21 -2 -8 -11 -14 -15 -14 -10
0 6 5 15 12 22 7 7 8 12 2 12 -12 0 -38 -27 -48 -50 -3 -8 -4 -5 -2 7 2 13 -1
26 -6 30 -7 4 -5 11 6 19 11 8 13 14 7 19 -6 3 -11 2 -11 -3 0 -13 -55 -9 -73
6 -12 10 -21 11 -37 2 -16 -9 -21 -8 -26 5 -6 14 -8 13 -19 -2 -8 -10 -17 -14
-21 -10 -5 4 -2 13 6 18 12 9 12 10 -2 5 -11 -3 -18 0 -18 7 0 6 -7 1 -16 -11
-8 -12 -20 -20 -25 -16 -6 3 -3 11 7 18 16 12 15 13 -2 11 -11 0 -25 -5 -33
-9 -8 -5 -17 -3 -23 5 -6 10 -7 6 -2 -11 6 -23 6 -24 -11 -10 -11 9 -16 10
-11 3 4 -7 3 -13 -2 -13 -5 0 -13 9 -18 20 -10 21 -30 15 -36 -10 -2 -10 8
-15 37 -16 22 -1 40 -3 40 -4 0 -1 8 -3 18 -5 9 -2 17 1 17 6 0 5 -5 9 -11 9
-5 0 -7 5 -3 12 5 8 10 7 18 -4 11 -15 49 -21 40 -6 -3 4 2 5 11 1 13 -4 14
-7 3 -14 -9 -6 -6 -8 10 -6 12 0 22 5 22 10 0 5 6 5 13 -1 8 -7 18 -6 31 4 25
18 33 18 33 -1 0 -11 -7 -14 -21 -10 -21 6 -21 6 -2 -9 17 -14 18 -16 3 -16
-9 0 -17 4 -17 8 0 4 -10 8 -22 9 -22 2 -22 1 -4 -13 11 -8 15 -14 9 -14 -7 0
-18 7 -27 15 -13 13 -16 13 -29 0 -13 -13 -16 -13 -21 0 -3 8 -13 15 -21 15
-9 0 -13 -4 -10 -10 3 -5 1 -10 -4 -10 -6 0 -11 5 -11 11 0 6 -5 7 -12 2 -7
-4 -17 -8 -23 -8 -5 -1 -9 -7 -7 -14 1 -7 -2 -10 -8 -6 -8 5 -7 11 1 21 7 9 8
14 1 14 -6 0 -14 -5 -17 -10 -5 -8 -11 -8 -20 0 -10 8 -15 6 -20 -10 -4 -12
-9 -19 -12 -17 -2 3 0 15 7 26 8 17 8 21 -3 21 -9 0 -13 11 -11 35 3 34 3 34
-16 15 -11 -11 -20 -24 -20 -28 0 -5 -6 -9 -12 -9 -7 0 -22 -4 -33 -8 -19 -7
-19 -7 -2 6 16 13 16 15 -5 28 -21 13 -22 13 -10 -2 11 -13 9 -18 -15 -31 -15
-8 -22 -15 -16 -16 9 0 8 -6 -3 -19 -17 -19 -59 -18 -47 2 3 6 1 7 -6 3 -15
-10 -4 -26 17 -26 12 0 13 -3 4 -12 -9 -9 -15 -9 -24 0 -7 7 -16 12 -20 12 -4
0 1 -9 12 -20 18 -18 18 -56 0 -45 -5 3 -7 -3 -6 -12 3 -20 -42 -55 -58 -46
-6 3 -8 2 -3 -2 10 -11 67 -14 67 -3 0 4 -6 8 -12 8 -7 0 -2 7 10 16 12 8 20
19 17 24 -3 5 0 12 6 15 5 4 8 14 5 22 -4 9 -2 11 6 7 7 -5 8 -3 3 6 -6 9 -4
11 5 5 9 -6 11 -4 5 4 -5 10 -3 10 12 0 11 -6 20 -18 20 -27 0 -12 -3 -12 -13
2 -9 13 -14 14 -20 5 -4 -7 -2 -15 4 -17 7 -2 0 -15 -17 -30 -21 -21 -27 -35
-25 -61 1 -19 -2 -28 -6 -21 -5 8 -10 9 -14 2 -3 -6 -2 -13 4 -17 13 -8 3 -25
-13 -25 -7 0 -6 4 3 10 8 5 12 10 8 11 -5 1 -12 3 -18 4 -5 1 -15 3 -21 4 -5
0 -8 5 -4 10 3 5 0 13 -7 18 -21 13 -35 12 -35 -3 0 -8 4 -14 9 -14 4 0 8 5 8
11 0 5 5 7 10 4 8 -5 7 -12 -2 -23 -10 -12 -10 -14 -1 -8 8 4 13 1 13 -9 0
-10 5 -13 13 -9 9 6 9 5 -1 -8 -10 -12 -10 -17 1 -27 8 -6 18 -7 22 -3 5 4 5
1 1 -6 -6 -11 -12 -10 -26 3 -11 10 -20 12 -24 7 -3 -6 0 -13 6 -16 18 -7 -21
0 -51 9 l-23 8 23 13 c13 7 32 11 43 7 12 -3 16 -1 12 6 -9 14 -39 14 -54 -1
-8 -8 -15 -8 -27 2 -12 10 -18 11 -28 1 -9 -10 -8 -11 8 -5 18 7 18 6 6 -9 -9
-12 -17 -14 -25 -8 -12 11 -34 10 -52 -2 -12 -7 -24 1 -24 15 0 5 4 7 9 3 5
-3 12 -1 15 4 4 5 -2 8 -11 7 -11 -2 -18 -12 -19 -26 -1 -12 -7 -25 -13 -29
-8 -5 -11 -230 -9 -865 l3 -857 31 -19 c24 -15 31 -17 31 -6 0 8 -6 12 -15 9
-12 -5 -12 -3 -1 15 l14 22 11 -21 c10 -20 12 -20 18 -4 3 10 4 20 1 23 -3 3
-5 -1 -5 -9 0 -12 -2 -12 -9 0 -21 33 38 63 77 38 6 -5 17 -5 24 -1 7 5 8 3 4
-5 -5 -7 -15 -10 -23 -7 -9 4 -13 1 -11 -6 5 -15 38 -20 38 -5 0 5 3 7 7 4 3
-4 12 -2 19 4 18 14 38 -23 22 -39 -7 -7 -8 -12 -2 -12 5 0 15 5 22 12 9 9 12
9 12 0 0 -7 -4 -12 -10 -12 -5 0 -9 -3 -9 -7 3 -21 -3 -32 -22 -38 -11 -4 -18
-9 -16 -12 3 -2 15 1 28 7 19 11 21 10 16 -5 -4 -9 -7 -19 -7 -21 0 -3 -5 -2
-12 2 -7 4 -8 3 -4 -4 4 -6 13 -9 21 -6 10 4 13 0 10 -14 -2 -12 3 -26 11 -32
7 -7 11 -17 8 -22 -3 -5 -12 -1 -21 9 -13 16 -13 16 -2 -6 10 -22 9 -23 -7
-17 -15 6 -16 5 -7 -5 10 -10 15 -9 28 1 13 11 15 9 15 -9 0 -12 -4 -20 -9
-17 -5 3 -8 -6 -8 -21 l0 -27 14 28 c18 34 25 68 13 61 -5 -3 -7 4 -5 15 3 13
0 18 -7 14 -7 -5 -8 -2 -3 6 6 10 14 7 31 -13 12 -14 25 -23 30 -19 4 4 4 2 0
-5 -4 -7 -13 -10 -21 -7 -8 4 -13 0 -11 -10 3 -20 16 -33 16 -16 0 7 3 10 7 7
3 -4 -2 -16 -12 -27 -14 -16 -15 -22 -5 -35 7 -8 8 -15 3 -15 -6 0 -15 10 -21
23 -10 21 -11 21 -13 2 -1 -11 -1 -26 0 -34 2 -7 -2 -11 -6 -8 -5 3 -15 1 -23
-4 -12 -7 -11 -8 5 -6 11 1 26 6 33 10 6 5 13 6 13 3 1 -3 2 -9 3 -13 1 -5 5
-14 10 -22 7 -11 6 -12 -5 -5 -35 21 -77 5 -79 -30 0 -6 6 -2 13 8 13 17 14
17 28 0 13 -16 12 -17 -4 -11 -11 4 -16 3 -12 -3 3 -6 1 -10 -6 -10 -7 0 -9
-3 -6 -7 4 -3 2 -12 -4 -19 -8 -10 -5 -21 10 -43 16 -21 18 -31 9 -34 -8 -3
-5 -6 6 -6 12 -1 16 4 13 13 -4 9 5 21 19 31 14 9 22 20 18 26 -3 6 -11 3 -18
-7 -11 -15 -13 -15 -13 0 0 9 3 16 7 16 4 0 7 7 7 15 0 8 -4 15 -9 15 -5 0 -7
4 -3 9 3 5 -2 17 -11 25 -19 20 -7 20 26 1 14 -8 19 -14 12 -15 -16 0 -12 -30
6 -49 11 -11 10 -17 -5 -33 -9 -10 -18 -24 -19 -31 -1 -7 -5 -20 -9 -29 -4
-11 -3 -18 5 -18 6 0 8 5 5 10 -3 6 -2 10 4 10 5 0 13 -9 16 -20 5 -15 12 -19
31 -14 17 4 26 1 30 -10 7 -19 44 -22 44 -3 0 8 3 8 9 -2 7 -11 10 -10 14 5 4
13 5 11 3 -6 -1 -14 -5 -30 -9 -37 -8 -13 0 -20 23 -18 8 0 14 7 12 15 -2 10
0 11 11 2 11 -10 17 -9 27 3 7 8 17 15 23 15 6 0 3 -6 -7 -13 -16 -12 -16 -14
-3 -26 13 -10 20 -8 38 10 17 17 21 18 16 5 -4 -10 -7 -20 -7 -22 0 -2 -7 -4
-16 -4 -12 0 -11 -4 7 -19 13 -10 28 -18 34 -16 5 1 7 0 2 -2 -4 -3 -4 -10 0
-16 4 -7 -1 -6 -10 2 -12 9 -17 10 -17 2 0 -6 7 -14 15 -17 8 -4 15 -10 15
-16 0 -5 -4 -6 -10 -3 -5 3 -11 1 -11 -4 -1 -6 -3 -15 -4 -21 -1 -5 -3 -13 -4
-17 -1 -5 -6 -1 -12 7 -9 13 -10 13 -6 0 2 -8 10 -14 16 -13 6 2 11 -3 11 -10
1 -6 10 -1 20 12 17 20 20 21 17 5 -5 -34 -17 -46 -33 -33 -8 6 -14 8 -14 4 0
-4 -6 -3 -13 3 -9 8 -17 8 -27 0 -12 -8 -12 -9 2 -4 10 3 20 1 23 -4 4 -6 -2
-10 -12 -11 -11 0 -13 -3 -5 -6 7 -3 19 1 27 7 23 19 18 2 -11 -36 -23 -29
-24 -33 -8 -28 15 4 13 1 -6 -16 -20 -17 -21 -19 -4 -11 13 6 24 7 30 1 7 -7
10 -1 10 14 0 14 -4 22 -8 20 -4 -3 -8 2 -8 12 0 13 3 14 13 5 10 -8 14 -7 14
4 0 8 -5 11 -10 8 -6 -4 -7 -1 -3 6 5 7 11 10 14 7 3 -4 17 4 30 16 l25 23
-19 -27 c-10 -15 -22 -28 -27 -28 -4 0 0 -12 9 -28 12 -20 12 -22 1 -9 -8 10
-18 14 -21 9 -3 -5 1 -15 9 -22 8 -7 15 -18 15 -24 0 -6 -5 -4 -10 4 -5 8 -10
11 -11 5 -4 -31 -3 -41 4 -46 5 -3 2 -9 -6 -12 -12 -4 -15 0 -11 16 3 20 -10
37 -30 37 -6 0 -2 -6 9 -13 13 -10 15 -16 6 -21 -9 -6 -9 -11 0 -23 11 -12 10
-14 -6 -11 -10 1 -20 -4 -22 -12 -4 -12 -3 -12 5 -1 11 16 19 4 17 -26 -1 -12
4 -24 13 -28 12 -4 12 -8 1 -22 -10 -12 -10 -14 -1 -9 7 4 12 2 12 -8 0 -21
-17 -29 -24 -11 -6 17 -26 20 -26 4 0 -5 5 -7 12 -3 7 5 9 2 5 -8 -8 -22 22
-17 39 7 8 10 15 16 15 12 5 -25 3 -33 -11 -40 -10 -5 -8 -6 8 -3 15 3 22 -1
22 -11 0 -10 6 -13 16 -9 12 4 14 1 9 -14 -4 -12 -2 -20 5 -20 6 0 9 4 5 9 -3
6 4 9 15 8 12 -1 18 -7 16 -13 -3 -8 3 -11 18 -8 27 4 51 -18 41 -38 -4 -7 0
-4 9 6 16 19 12 41 -5 30 -5 -3 -8 0 -7 8 2 7 -3 12 -9 11 -7 -2 -13 2 -13 8
0 6 -7 9 -15 6 -8 -4 -17 -2 -20 4 -4 5 -11 6 -17 3 -7 -5 -8 -2 -3 6 5 9 4
11 -3 6 -7 -4 -12 -1 -12 6 0 9 -3 9 -10 -2 -9 -13 -10 -13 -11 0 -1 8 -1 19
0 23 1 5 -3 6 -8 2 -6 -3 -8 3 -6 15 2 11 1 18 -4 16 -4 -3 -13 0 -21 6 -12 8
-12 9 3 4 10 -3 17 0 17 7 0 8 4 7 9 -3 6 -8 8 -17 5 -21 -2 -4 0 -10 6 -14 5
-3 10 1 10 9 0 9 5 16 10 16 7 0 7 -6 1 -19 -9 -15 -6 -22 14 -35 14 -9 25
-12 25 -7 0 6 -8 15 -18 20 -15 9 -16 10 0 11 9 0 19 -8 23 -18 3 -11 17 -24
30 -30 28 -13 33 -6 10 12 -11 8 -12 15 -4 26 9 13 10 13 6 -2 -3 -9 1 -19 10
-22 8 -4 13 -13 9 -21 -3 -8 -1 -17 4 -20 6 -4 10 2 10 12 0 13 4 10 15 -11
17 -33 19 -50 5 -41 -6 4 -7 11 -4 17 4 7 2 8 -4 4 -17 -10 -15 -19 9 -34 12
-8 18 -9 15 -4 -3 6 -1 12 5 14 9 3 9 9 0 25 -6 12 -11 28 -11 35 1 7 7 -2 15
-20 8 -18 19 -31 25 -27 5 3 10 1 10 -4 0 -6 -7 -11 -15 -11 -8 0 -15 -6 -16
-12 0 -7 -2 -20 -4 -29 -2 -10 3 -16 14 -15 11 1 15 -6 14 -21 -2 -13 2 -23 9
-23 6 0 8 3 5 6 -3 4 -2 16 4 27 9 15 8 18 -2 12 -8 -6 -10 -4 -4 5 5 9 4 11
-3 6 -8 -5 -10 -1 -6 11 5 15 4 15 -5 3 -5 -8 -13 -12 -16 -8 -4 4 5 14 19 24
15 9 29 14 33 10 3 -3 1 -6 -5 -6 -7 0 -12 -7 -12 -15 0 -8 5 -15 11 -15 6 0
9 -6 6 -14 -3 -8 1 -20 9 -26 8 -7 14 -18 14 -24 0 -6 -7 -2 -15 8 -8 11 -18
17 -21 13 -3 -3 6 -18 22 -32 20 -19 23 -24 8 -19 -17 7 -17 6 -5 -9 7 -9 17
-15 21 -12 4 3 11 -2 14 -10 5 -13 2 -14 -15 -4 -18 9 -20 8 -15 -9 4 -11 2
-23 -4 -27 -7 -4 -7 -12 0 -26 6 -11 8 -24 4 -30 -3 -6 2 -19 11 -29 12 -14
13 -20 4 -26 -7 -4 -10 -3 -6 3 4 6 0 16 -8 23 -13 11 -15 10 -12 -6 2 -11 8
-27 12 -38 5 -11 4 -26 -3 -36 -8 -13 -6 -22 11 -41 l22 -23 -22 18 c-21 18
-22 18 -20 -3 1 -19 9 -25 30 -22 4 0 7 -4 7 -10 0 -6 -9 -8 -22 -3 -19 6 -21
5 -11 -7 10 -12 8 -17 -6 -26 -13 -8 -18 -8 -18 0 0 7 -4 21 -8 32 -5 14 -4
16 3 6 7 -9 12 -10 16 -2 4 6 2 11 -4 11 -13 0 -9 32 5 42 6 5 5 8 -3 8 -10 0
-10 4 2 16 17 17 22 39 7 29 -5 -3 -13 0 -17 6 -4 8 -3 9 4 5 7 -4 12 -3 12 2
0 5 -9 12 -20 15 -13 3 -18 10 -14 21 3 9 10 14 15 11 4 -3 13 3 18 14 13 24
14 42 2 22 -6 -9 -11 -10 -15 -2 -4 6 -2 11 3 11 6 0 11 4 11 8 0 5 -7 9 -15
9 -8 0 -12 -4 -9 -9 3 -4 -1 -8 -8 -8 -8 0 -6 -5 5 -11 9 -5 17 -14 17 -20 0
-5 -10 -3 -23 6 -20 13 -24 13 -24 1 0 -8 6 -12 14 -9 18 7 17 -2 -3 -21 -8
-9 -11 -16 -5 -16 6 0 15 -8 20 -19 8 -14 5 -23 -9 -39 -12 -12 -16 -23 -10
-27 6 -3 10 -1 10 5 0 6 5 8 11 4 7 -4 7 -10 1 -16 -6 -6 -8 -18 -4 -27 5 -14
4 -14 -11 -2 -10 8 -20 11 -24 7 -3 -3 -1 -6 6 -6 7 0 9 -5 5 -12 -4 -6 -3 -8
3 -5 16 10 35 -39 19 -52 -7 -6 -17 -7 -21 -3 -5 4 -5 1 -1 -6 6 -10 11 -10
22 -1 16 13 19 -2 3 -18 -8 -8 -8 -13 0 -17 6 -4 11 -15 11 -24 0 -13 -3 -12
-16 6 -8 12 -21 22 -27 21 -9 0 -8 -2 1 -6 6 -2 9 -10 6 -15 -4 -6 -3 -8 3 -5
6 4 15 -5 21 -18 7 -16 8 -26 1 -30 -5 -4 -7 -11 -4 -16 4 -5 -1 -9 -9 -9 -9
0 -16 -4 -16 -10 0 -5 6 -7 13 -4 8 3 13 -3 13 -16 0 -11 -5 -20 -11 -20 -5 0
-2 -5 8 -11 14 -8 15 -14 7 -24 -6 -8 -19 -11 -28 -8 -14 4 -15 3 -2 -5 8 -6
17 -9 21 -6 4 2 7 -5 6 -16 -1 -14 -6 -19 -16 -15 -9 3 -12 3 -8 -1 4 -4 -1
-13 -11 -21 -16 -13 -15 -13 3 -5 11 5 25 7 32 5 8 -3 11 3 8 17 -2 11 -1 19
3 16 4 -2 7 17 8 42 1 26 5 56 9 66 7 16 5 18 -11 13 -19 -7 -19 -7 0 8 11 8
15 15 10 15 -5 0 -10 9 -11 20 -1 11 3 20 8 20 6 0 7 5 3 11 -4 8 0 8 15 0 23
-13 29 -23 7 -15 -9 4 -13 -3 -11 -23 3 -39 15 -64 29 -56 6 3 7 2 3 -3 -5 -5
-13 -10 -18 -10 -5 -1 -13 -2 -18 -3 -12 -1 -9 -25 5 -42 20 -26 28 -42 16
-35 -15 9 -27 -13 -14 -26 13 -13 4 -38 -12 -38 -7 0 -13 -7 -13 -15 0 -8 5
-15 10 -15 5 0 7 -6 4 -14 -3 -7 1 -23 10 -35 13 -20 13 -24 -1 -39 -14 -16
-13 -20 4 -47 11 -17 20 -26 20 -20 0 5 7 -1 16 -14 10 -14 23 -21 34 -18 14
4 17 0 14 -17 -3 -16 2 -22 16 -23 11 -1 22 2 25 8 8 12 25 12 25 -2 0 -5 -5
-7 -10 -4 -6 3 -13 -1 -16 -10 -5 -12 -9 -13 -20 -4 -8 6 -15 8 -15 3 -7 -48
-6 -53 11 -44 10 5 21 17 24 26 4 9 9 14 13 11 3 -4 12 -2 19 4 9 8 18 7 31
-1 16 -10 15 -10 -4 -5 -18 5 -22 3 -17 -9 3 -9 11 -13 17 -9 5 3 7 1 3 -5 -3
-6 -2 -13 4 -17 5 -3 10 -1 10 4 0 6 5 11 11 11 8 0 8 -4 -1 -15 -12 -15 -6
-35 11 -35 6 0 8 4 5 9 -8 12 4 41 16 41 6 0 5 -7 -3 -16 -10 -13 -8 -19 14
-40 15 -14 27 -26 27 -29 0 -7 -31 2 -42 13 -20 20 -26 14 -25 -28 0 -22 5
-40 9 -40 5 0 6 12 3 28 -6 26 -6 26 9 8 8 -10 13 -23 10 -28 -3 -5 1 -17 10
-27 10 -11 14 -26 10 -37 -4 -14 -3 -15 4 -5 6 8 12 9 16 3 9 -15 44 -3 50 17
3 11 4 10 3 -4 -1 -11 2 -26 7 -33 5 -8 3 -18 -4 -25 -9 -9 -11 -7 -8 8 2 14
-2 19 -12 16 -8 -2 -24 -3 -35 -3 -15 1 -16 -1 -6 -8 8 -4 20 -6 28 -3 9 4 11
0 7 -10 -4 -12 -1 -15 14 -12 13 2 24 -5 32 -20 7 -14 17 -22 22 -19 12 8 10
-10 -4 -26 -11 -12 -10 -12 3 -2 9 6 19 8 24 4 4 -4 2 3 -4 16 -6 12 -16 22
-22 22 -6 0 -7 5 -3 12 5 8 12 6 23 -8 17 -20 68 -34 56 -15 -3 6 -10 9 -14 7
-4 -3 -13 -1 -20 3 -9 6 -10 11 -2 15 6 4 11 2 11 -4 0 -6 5 -8 10 -5 6 4 7
11 4 17 -4 5 12 -1 34 -13 22 -13 39 -25 37 -28 -3 -2 -16 4 -31 13 -36 24
-42 13 -6 -12 27 -19 31 -20 53 -6 l24 16 -22 -20 c-24 -21 -19 -39 5 -19 10
8 13 8 9 1 -4 -7 0 -14 8 -18 8 -3 15 -11 14 -18 0 -10 -2 -10 -6 0 -2 6 -9
12 -14 12 -6 0 -8 -4 -4 -9 3 -5 1 -12 -4 -16 -6 -3 -8 3 -6 14 3 15 -1 19
-16 16 -12 -2 -17 0 -13 7 4 6 -1 6 -15 -1 -11 -7 -21 -17 -20 -24 0 -9 2 -9
6 1 2 6 9 12 14 12 6 0 7 -4 4 -10 -3 -5 -1 -10 4 -10 6 0 11 5 11 11 0 5 5 7
10 4 8 -5 7 -11 -1 -21 -15 -18 -3 -32 13 -16 24 24 31 11 7 -14 -21 -22 -21
-24 -4 -18 18 7 19 6 5 -11 -8 -10 -10 -16 -4 -12 7 4 17 -5 24 -23 7 -17 17
-30 22 -30 5 0 6 -4 3 -10 -3 -5 -1 -10 5 -10 6 0 8 -6 4 -12 -6 -10 -4 -10 7
0 7 6 17 12 22 12 6 0 5 -5 0 -12 -15 -20 -24 -50 -13 -43 6 3 10 13 10 21 0
8 4 13 9 9 6 -3 8 7 5 22 -3 21 -2 24 6 13 8 -13 10 -13 10 3 0 9 5 17 10 17
7 0 7 -7 0 -20 -6 -11 -8 -25 -5 -30 3 -5 -3 -13 -12 -19 -10 -6 -13 -11 -6
-11 6 0 15 5 19 12 5 7 15 2 30 -17 19 -24 25 -26 38 -16 12 10 14 7 12 -24
-2 -19 0 -38 5 -40 4 -3 6 9 4 26 -4 31 -4 31 17 13 12 -11 18 -14 15 -8 -4 7
0 14 8 18 18 6 19 1 5 -25 -8 -14 -8 -19 1 -17 6 2 14 -3 17 -11 3 -9 0 -11
-7 -6 -9 5 -9 2 0 -13 7 -12 17 -18 21 -16 4 3 8 1 8 -5 0 -5 -3 -11 -7 -14
-5 -2 -2 -2 4 -1 7 2 20 -9 28 -24 12 -21 15 -22 13 -7 -2 11 -7 23 -13 27 -6
5 -6 8 1 8 6 0 17 -6 24 -14 6 -8 19 -12 28 -9 14 4 15 3 2 -5 -8 -6 -18 -8
-22 -6 -4 3 -8 1 -8 -5 0 -10 31 -31 46 -31 3 0 0 8 -7 18 -12 15 -12 16 2 5
9 -7 19 -9 24 -5 4 4 2 -2 -5 -14 -12 -19 -16 -20 -38 -8 -22 11 -60 9 -48 -4
3 -3 1 -11 -6 -19 -8 -11 -7 -12 6 -7 9 3 16 13 16 21 0 9 13 0 30 -22 17 -21
30 -33 30 -27 0 6 -4 14 -10 17 -5 3 -10 11 -10 17 0 6 9 3 20 -7 11 -10 18
-21 15 -24 -2 -4 1 -13 7 -21 8 -13 9 -12 5 1 -3 9 0 22 6 29 9 10 9 11 -3 5
-13 -8 -13 -6 -1 8 14 18 53 17 59 -1 2 -7 8 -10 13 -6 5 3 9 2 8 -3 -4 -20 2
-24 19 -12 9 7 14 9 10 5 -4 -5 -3 -15 2 -22 6 -6 9 -17 8 -24 -2 -7 3 -15 11
-18 10 -3 11 0 5 9 -6 11 -5 12 8 2 8 -7 18 -9 23 -5 4 4 3 -2 -3 -13 -13 -26
8 -61 26 -43 9 9 12 9 12 0 0 -7 -5 -12 -11 -12 -8 0 -8 -4 1 -15 6 -8 9 -19
6 -24 -4 -5 -2 -12 4 -16 5 -3 10 -2 10 4 0 6 8 7 17 4 15 -6 15 -7 -1 -13
-16 -5 -15 -8 9 -24 25 -17 27 -17 22 -2 -4 11 -3 15 4 11 6 -4 8 -13 5 -20
-7 -20 22 -55 41 -48 13 5 15 2 10 -11 -6 -14 4 -48 19 -65 6 -7 44 31 44 43
-1 6 -9 1 -20 -12 -18 -22 -39 -14 -24 10 5 7 2 9 -7 4 -8 -4 -6 -1 4 7 12 10
14 17 8 22 -14 8 -14 25 0 25 5 0 8 -4 4 -9 -3 -5 -1 -12 4 -16 6 -3 7 -13 4
-23 -5 -13 -3 -15 7 -5 10 9 19 5 44 -20 16 -18 31 -35 32 -39 1 -5 2 -11 3
-15 1 -5 6 -1 11 7 6 9 10 11 10 3 0 -7 7 -10 18 -7 14 5 15 4 2 -5 -11 -8
-12 -11 -2 -11 9 0 11 -7 6 -22 -6 -21 -5 -22 12 -8 19 14 19 14 1 -7 -11 -12
-25 -19 -34 -16 -11 4 -12 8 -3 13 9 6 9 9 -1 13 -10 4 -8 6 4 6 10 1 15 6 12
11 -4 6 -10 8 -15 5 -5 -3 -11 -1 -15 5 -4 6 -11 7 -17 4 -7 -5 -8 -2 -3 6 6
9 4 11 -6 5 -12 -8 -12 -6 0 8 7 10 9 17 3 17 -6 0 -12 -3 -15 -7 -2 -5 -2 -1
0 7 2 8 1 11 -3 7 -4 -4 -12 -2 -19 3 -8 7 -15 3 -23 -15 -9 -20 -9 -23 3 -18
8 3 12 9 9 14 -3 5 -1 9 3 9 5 0 17 -14 28 -32 10 -18 20 -27 23 -20 2 7 8 9
13 6 6 -3 5 -11 -2 -20 -6 -8 -8 -14 -3 -14 5 0 2 -5 -6 -11 -13 -9 -13 -10 0
-8 29 3 41 -1 34 -12 -4 -8 0 -8 15 0 24 13 23 14 26 -16 1 -12 -1 -20 -6 -18
-4 3 -10 -4 -14 -15 -4 -11 -11 -18 -16 -14 -6 4 -2 15 10 28 12 12 21 26 21
32 0 5 -7 1 -14 -9 -13 -16 -15 -16 -30 -2 -9 9 -16 11 -16 5 0 -6 7 -13 15
-16 8 -4 12 -10 9 -16 -3 -5 -13 -4 -22 4 -10 7 -7 1 5 -13 18 -20 20 -28 10
-38 -10 -10 -8 -11 8 -5 18 7 18 6 6 -9 -7 -9 -17 -14 -22 -11 -5 3 -6 -2 -2
-11 4 -12 8 -13 13 -5 5 9 10 9 14 1 9 -14 1443 -15 1451 -1 4 6 11 10 16 10
6 0 7 -5 3 -12 -4 -7 -3 -8 5 -4 15 10 3 29 -15 22 -17 -7 -18 6 -2 22 7 7 8
12 2 12 -5 0 -3 4 5 9 12 8 12 12 2 25 -14 17 -1 22 15 6 6 -6 15 -5 24 1 12
9 12 10 -3 5 -19 -6 -39 28 -30 51 6 16 -13 17 -23 1 -4 -6 -3 -8 2 -5 5 3 10
-3 10 -13 0 -10 -4 -17 -7 -14 -4 2 -11 -1 -15 -7 -4 -7 -3 -9 3 -6 5 3 10 0
10 -8 0 -8 -5 -11 -11 -8 -6 4 -5 -1 3 -10 12 -15 11 -17 -3 -17 -10 0 -14 5
-11 10 3 6 -2 10 -12 11 -14 0 -15 2 -3 7 8 4 16 15 18 26 2 11 -1 15 -7 11
-6 -3 -11 -3 -12 2 0 4 -2 17 -3 29 -2 13 4 20 16 21 10 1 18 -3 18 -8 0 -11
41 8 52 24 4 7 11 7 21 -1 10 -9 14 -9 14 1 0 8 -5 14 -11 15 -6 0 -22 3 -34
6 -21 5 -22 3 -10 -11 11 -14 11 -16 -1 -8 -10 5 -12 4 -7 -3 4 -7 3 -12 -1
-12 -5 0 -14 10 -22 22 -7 13 -10 20 -6 16 7 -7 45 21 45 35 0 4 -10 2 -22 -4
-23 -12 -23 -12 -3 8 11 11 22 16 23 11 2 -4 8 -6 13 -3 5 4 6 -1 3 -9 -3 -9
-2 -16 4 -16 18 0 21 29 4 39 -9 6 -12 11 -5 11 6 0 15 -4 18 -10 4 -6 11 -5
19 3 8 6 11 16 8 21 -3 5 1 6 8 1 7 -4 16 -2 21 6 6 9 9 10 9 2 0 -7 -7 -16
-16 -21 -11 -6 -13 -12 -6 -16 6 -3 17 2 24 12 13 19 18 22 39 22 5 0 7 5 3
11 -5 8 -1 8 14 0 17 -9 23 -7 36 11 9 12 16 17 16 11 0 -6 -7 -16 -15 -23 -8
-7 -13 -16 -10 -20 3 -5 1 -12 -5 -15 -6 -4 -9 -1 -8 6 2 6 -3 14 -11 17 -8 2
-11 0 -7 -6 3 -6 1 -14 -5 -18 -8 -4 -9 -3 -5 4 4 7 2 12 -3 12 -6 0 -12 -3
-12 -7 -7 -39 -5 -49 11 -49 12 0 17 6 14 19 -2 13 1 17 11 13 8 -3 17 -1 20
4 4 6 12 10 18 10 7 -1 3 -9 -8 -18 -11 -10 -21 -24 -23 -31 -2 -8 10 0 26 17
31 33 55 43 46 18 -3 -8 -1 -17 5 -21 7 -4 9 1 5 12 -5 16 -3 15 12 -2 11 -13
15 -15 11 -4 -3 9 3 21 15 28 22 14 22 16 2 -33 -3 -9 0 -14 8 -12 22 3 39 17
33 27 -7 10 8 12 18 2 4 -3 -3 -18 -15 -32 l-23 -26 25 20 c14 11 27 22 30 25
3 3 11 5 18 4 6 -1 17 -2 23 -3 5 0 8 -5 5 -10 -7 -10 20 -9 30 2 4 4 14 1 23
-6 14 -10 14 -10 3 5 -8 10 -9 19 -3 22 5 4 12 -3 16 -14 4 -11 11 -18 16 -15
13 9 11 -9 -3 -25 -7 -8 -4 -7 7 3 19 17 19 19 3 31 -18 13 -26 32 -9 22 5 -4
8 2 7 11 -2 9 -8 19 -14 21 -7 2 -10 -3 -6 -12 4 -11 0 -14 -15 -11 -12 2 -19
0 -16 -5 5 -9 -13 -8 -30 1 -5 3 -20 4 -32 4 -20 -2 -40 21 -28 33 3 3 5 1 5
-5 0 -6 12 -10 26 -10 15 0 30 -6 34 -13 5 -9 9 -9 14 -1 4 6 -3 15 -16 20
-15 7 -17 10 -7 10 9 1 22 -6 30 -15 11 -14 13 -14 21 0 17 30 45 17 39 -17
-1 -5 4 -7 11 -4 7 2 12 9 11 14 -1 5 3 10 10 11 50 7 60 10 67 22 6 9 10 7
15 -9 5 -16 12 -20 28 -17 12 3 16 3 10 0 -17 -7 -17 -25 -1 -21 7 1 21 14 30
30 19 30 34 37 19 9 -5 -10 -6 -24 0 -34 7 -13 4 -15 -21 -13 -17 1 -30 -2
-30 -7 0 -6 7 -8 15 -4 8 3 19 -2 24 -12 7 -11 11 -12 11 -4 0 7 4 11 9 8 5
-3 7 11 5 32 -2 23 0 32 5 23 7 -10 12 -8 25 10 9 13 16 19 16 14 0 -5 -10
-19 -22 -32 -12 -13 -16 -23 -9 -23 7 0 10 -4 7 -9 -7 -11 22 -36 31 -27 3 3
1 6 -6 6 -7 0 -9 5 -5 12 5 8 11 6 20 -7 12 -17 14 -17 20 -1 6 16 8 16 27 -1
11 -10 17 -12 13 -6 -9 16 10 18 19 3 5 -8 11 -7 21 1 10 8 18 8 27 1 8 -7 18
-7 27 -2 8 5 23 7 33 4 10 -3 19 1 23 10 8 21 25 10 18 -12 -5 -15 -5 -15 6 1
9 14 15 15 33 5 21 -11 21 -10 7 7 -14 17 -13 18 2 13 21 -9 31 2 17 19 -6 7
-8 13 -5 13 4 0 2 10 -5 21 -6 12 -7 19 -1 15 5 -3 13 1 16 10 10 25 2 26 -22
4 -22 -20 -31 -47 -13 -35 5 3 12 1 16 -4 3 -6 -3 -8 -14 -6 -11 2 -22 -3 -25
-11 -6 -17 5 -19 21 -3 6 6 13 7 17 1 3 -5 -6 -14 -19 -20 -20 -9 -26 -8 -33
6 -5 9 -7 23 -4 31 3 9 0 11 -8 6 -9 -5 -11 -4 -6 4 6 9 11 9 21 1 10 -8 15
-6 20 9 3 12 15 26 26 32 11 5 17 15 13 22 -4 7 -4 9 0 5 9 -7 50 31 42 39 -3
3 -11 2 -19 -3 -7 -5 -4 -1 6 9 11 9 16 17 13 17 -4 0 -2 9 4 20 6 11 16 18
22 14 6 -4 8 2 3 17 -3 13 -3 19 2 12 6 -8 15 -6 32 8 13 11 21 22 17 26 -3 4
-12 1 -18 -5 -7 -7 -17 -12 -22 -12 -6 0 0 7 12 16 13 9 26 13 29 10 3 -3 12
-1 18 4 9 8 16 2 25 -20 7 -17 17 -33 22 -36 6 -4 5 3 -2 15 -6 12 -13 31 -15
43 -4 17 -2 18 11 7 13 -11 15 -10 12 6 -1 10 3 19 10 21 7 1 8 0 2 -3 -5 -2
-7 -9 -4 -14 3 -6 11 -6 20 2 7 6 11 16 8 21 -4 6 2 5 14 -1 11 -6 27 -9 34
-8 7 2 10 2 6 0 -13 -8 -9 -20 7 -20 8 0 16 6 19 14 3 7 10 13 16 13 5 0 2 -9
-7 -19 -9 -11 -20 -18 -24 -15 -4 2 -1 -9 7 -26 19 -36 27 -40 14 -5 -8 20 -6
25 6 25 9 0 12 5 8 13 -5 7 0 6 11 -3 16 -13 16 -15 2 -18 -10 -2 -17 -8 -17
-13 0 -6 4 -8 9 -5 12 8 33 -19 23 -29 -4 -5 -1 -5 6 -1 8 5 10 12 4 19 -5 7
-9 20 -9 30 0 13 5 16 21 11 18 -6 19 -5 7 10 -9 10 -10 16 -2 16 6 0 11 -4
11 -10 0 -5 5 -10 11 -10 5 0 7 5 3 12 -4 6 -3 8 4 4 6 -3 14 -1 18 5 5 9 11
6 21 -7 14 -18 15 -18 34 5 10 13 19 19 19 14 0 -5 9 -9 19 -10 16 -1 19 4 16
30 -3 26 -2 28 6 14 6 -9 7 -21 4 -27 -3 -5 3 -13 13 -19 14 -7 19 -6 19 4 0
8 -5 11 -10 8 -6 -3 -7 -1 -3 6 4 6 2 18 -4 26 -7 8 -9 15 -6 15 12 0 35 -27
29 -33 -3 -3 4 -5 15 -4 11 0 19 4 16 8 -2 4 8 17 23 28 21 16 23 20 8 15 -17
-5 -16 -2 5 17 17 15 19 20 8 16 -22 -8 -23 2 -2 31 8 12 12 27 9 32 -3 6 1
10 10 10 10 0 13 -5 9 -12 -4 -7 -3 -8 5 -4 6 4 9 11 6 16 -9 15 19 18 36 4
13 -12 16 -12 16 1 0 8 -4 12 -9 9 -4 -3 -8 0 -8 6 0 8 -7 9 -17 5 -44 -17
-62 -16 -60 5 1 11 5 20 10 20 5 0 7 -6 4 -14 -4 -9 0 -13 11 -11 9 2 21 4 25
4 5 1 5 6 2 11 -4 6 6 23 22 38 27 26 30 26 46 10 9 -10 13 -18 7 -18 -5 0 -7
-7 -3 -17 5 -14 8 -13 15 7 6 15 12 19 21 13 19 -15 42 -9 39 10 -2 9 2 17 8
17 5 0 10 -4 10 -10 0 -5 5 -10 12 -10 9 0 9 3 0 12 -16 16 -15 33 1 19 16
-13 27 -5 27 21 0 13 4 17 13 12 9 -6 9 -5 0 8 -13 15 -8 28 9 28 5 0 6 -6 2
-12 -4 -7 -4 -10 1 -6 4 4 15 2 24 -4 13 -10 14 -10 4 1 -6 7 -9 21 -6 30 4
14 3 14 -6 1 -6 -8 -11 -13 -12 -10 0 3 -2 16 -5 29 -3 19 -2 22 10 12 11 -9
13 -6 10 19 -3 23 0 29 9 24 7 -5 5 0 -3 11 -14 17 -13 18 5 12 19 -7 19 -6 2
7 -13 10 -15 15 -5 19 7 3 -4 4 -24 2 -20 -1 -42 2 -50 7 -10 8 -9 9 4 5 20
-7 45 18 28 28 -5 3 -10 0 -10 -7 0 -10 -3 -9 -9 2 -6 8 -8 17 -5 21 2 4 -2
10 -8 12 -8 4 -7 6 3 6 9 1 20 -7 23 -16 6 -14 9 -15 15 -4 6 9 11 10 15 2 4
-6 3 -11 -1 -11 -5 0 -9 -10 -10 -22 0 -13 1 -17 4 -10 3 6 8 10 13 7 4 -3 7
3 6 13 0 10 5 16 13 14 11 -2 12 0 4 10 -6 7 -9 21 -8 30 2 11 -2 15 -11 11
-10 -4 -12 0 -8 11 3 9 11 13 16 10 6 -4 5 3 -1 15 -7 12 -9 27 -5 34 6 8 3 8
-9 -1 -14 -12 -16 -11 -14 7 1 14 6 20 15 16 7 -2 10 0 7 5 -3 6 -1 10 5 10 6
0 8 5 4 12 -5 8 -2 9 10 5 9 -4 15 -3 11 2 -3 5 -2 11 2 14 5 2 1 2 -7 -1 -8
-3 -25 -5 -37 -5 -12 -1 -19 -5 -17 -9 3 -5 10 -6 15 -3 5 4 9 2 9 -3 0 -6 -7
-12 -15 -16 -8 -3 -14 -2 -14 2 3 18 -2 26 -9 15 -5 -8 -13 -9 -22 -3 -13 8
-12 10 3 10 9 0 17 5 17 11 0 6 7 9 15 5 18 -6 20 15 3 32 -9 9 -7 17 10 35
14 15 20 31 17 43 -4 13 -2 12 6 -3 7 -13 18 -23 26 -23 8 0 12 4 8 9 -10 17
31 33 44 17 14 -16 -11 -42 -30 -30 -8 5 -9 3 -5 -5 5 -8 2 -11 -9 -9 -10 2
-20 -4 -22 -12 -3 -11 -2 -11 4 -3 5 7 14 9 20 5 9 -6 7 -11 -7 -19 -14 -10
-19 -9 -24 2 -3 8 -3 23 1 33 6 15 4 15 -15 -2 -21 -18 -31 -43 -13 -32 5 3
15 -2 22 -11 10 -12 10 -14 2 -9 -7 4 -13 2 -13 -3 0 -16 8 -14 41 10 16 11
27 25 24 30 -4 5 -2 9 4 9 5 0 11 -3 14 -7 2 -5 2 -3 1 4 -2 6 6 11 17 10 20
-1 24 -9 12 -21 -4 -3 -8 -14 -9 -22 -1 -9 1 -13 4 -9 4 4 7 10 7 13 0 4 4 13
8 19 10 16 -1 36 -14 28 -5 -4 -9 -2 -9 4 0 21 19 20 34 -1 9 -12 16 -17 16
-10 0 8 5 10 12 6 6 -4 8 -3 4 4 -3 6 -2 13 4 17 5 3 10 1 10 -6 0 -8 4 -8 16
2 10 8 18 9 22 2 4 -5 18 -16 32 -22 22 -11 21 -10 -5 13 -16 14 -24 25 -17
26 7 0 10 5 7 10 -5 8 -12 7 -22 -2 -21 -17 -71 -18 -78 -1 -3 9 0 11 6 7 6
-4 15 0 20 7 5 8 9 9 9 3 0 -12 29 -12 49 0 13 9 34 -11 25 -25 -2 -4 2 -9 10
-12 18 -7 15 34 -4 51 -13 10 -13 11 3 6 16 -6 17 55 17 1261 -1 936 -4 1272
-12 1285 -9 13 -17 16 -28 10 -18 -10 -45 -8 -56 3 -4 4 -12 7 -17 7 -6 0 -7
-3 -4 -7 4 -3 1 -13 -6 -21 -9 -13 -9 -14 1 -8 6 4 12 3 12 -3 0 -5 -4 -12 -9
-15 -10 -7 -24 22 -16 34 3 4 1 19 -4 32 l-10 23 0 -23 c-1 -13 -5 -21 -9 -18
-4 2 -14 1 -20 -3 -10 -6 -9 -11 4 -22 16 -12 17 -12 12 2 -4 9 -1 16 7 16 10
0 11 -5 4 -18 -11 -22 -12 -32 -1 -25 5 3 9 -1 9 -8 0 -7 -6 -13 -13 -13 -7 0
-13 3 -12 6 0 3 0 13 -1 21 -1 13 -3 13 -12 0 -9 -13 -10 -12 -5 2 3 10 1 20
-4 23 -6 4 -10 -1 -10 -9 0 -8 -4 -17 -9 -20 -5 -4 -7 4 -4 16 4 19 3 20 -6 8
-6 -8 -11 -10 -11 -4 0 15 35 46 43 37 4 -3 7 -1 7 5 0 18 -18 14 -42 -8 -12
-11 -26 -20 -32 -20 -5 0 -2 6 7 13 35 25 27 84 -10 70 -21 -8 -15 -22 8 -18
18 4 19 2 7 -12 -11 -14 -11 -16 2 -9 10 6 10 3 -2 -10 -14 -15 -20 -16 -30
-5 -11 10 -9 11 7 6 18 -6 18 -5 -3 13 -13 13 -18 23 -12 27 6 3 7 11 4 17 -4
6 -3 8 3 5 10 -6 53 27 53 40 0 4 -11 -4 -25 -17 -14 -13 -25 -19 -25 -13 0 5
-7 10 -15 10 -11 0 -13 -6 -9 -20 4 -13 2 -17 -5 -13 -6 4 -11 16 -11 27 0 11
-5 17 -10 14 -6 -4 -9 -1 -8 7 2 7 -2 12 -9 11 -7 -2 -10 4 -6 13 4 11 8 12
13 4 5 -8 10 -8 14 -2 3 5 -1 15 -8 21 -11 10 -17 8 -25 -6 -6 -10 -11 -13
-11 -7 0 6 7 17 15 24 8 7 12 17 8 24 -4 6 1 5 10 -3 9 -7 14 -18 10 -25 -4
-6 1 -5 10 3 9 7 17 16 17 19 0 3 -3 3 -6 -1 -4 -3 -13 1 -22 10 -14 14 -14
17 3 29 10 8 14 14 8 14 -7 0 -15 -5 -18 -10 -4 -6 -11 -7 -17 -4 -6 4 -5 10
3 16 10 6 7 7 -8 3 -14 -4 -23 -2 -23 4 0 6 7 11 15 11 8 0 15 4 15 8 0 17
-30 8 -36 -10 -3 -10 -10 -15 -16 -12 -7 4 -8 2 -4 -5 4 -6 11 -9 16 -6 5 3
12 -4 15 -16 6 -17 9 -19 16 -8 5 8 9 9 9 3 0 -7 -8 -20 -17 -31 -10 -10 -15
-14 -10 -9 13 17 8 29 -7 17 -12 -10 -17 -8 -26 10 -8 14 -8 19 -1 15 6 -4 11
-3 11 2 0 17 -13 22 -28 9 -13 -10 -14 -9 -7 2 6 11 4 13 -8 8 -9 -3 -22 -1
-29 6 -8 7 -18 13 -23 14 -6 1 -17 4 -27 8 -11 4 -16 1 -15 -11 1 -9 -5 -19
-13 -21 -13 -4 -13 -3 0 6 8 5 11 13 7 17 -3 4 -13 2 -20 -5 -11 -9 -17 -7
-28 6 -8 9 -9 14 -2 10 6 -4 14 -3 18 3 4 6 10 8 15 5 5 -3 11 -1 15 5 4 6 11
8 16 5 5 -4 9 -1 9 4 0 15 -13 14 -29 -1 -12 -11 -13 -10 -7 6 5 15 4 17 -7 8
-9 -8 -18 -8 -25 -2 -9 7 -9 7 -2 -2 18 -22 10 -32 -10 -13 -19 17 -21 17 -43
-7 -13 -14 -21 -30 -20 -35 2 -6 -1 -15 -8 -19 -9 -5 -10 -2 -6 10 5 14 3 17
-8 12 -8 -3 -15 -1 -15 4 0 5 9 12 20 15 26 8 44 41 28 51 -6 4 -8 3 -5 -2 8
-14 -9 -38 -22 -30 -15 10 -14 29 2 20 6 -4 8 -3 4 1 -4 5 -14 10 -23 11 -14
2 -13 0 1 -22 8 -13 11 -24 6 -24 -6 0 -15 8 -20 18 -6 9 -11 11 -11 5 0 -7
-5 -13 -11 -13 -5 0 -8 4 -4 9 3 5 1 13 -5 16 -6 4 -10 3 -9 -2 3 -20 -2 -27
-11 -13 -5 8 -12 11 -16 7 -4 -4 -5 -9 -2 -12 6 -6 44 -16 66 -17 8 -1 9 -5 3
-11 -5 -5 -8 -15 -7 -21 2 -6 1 -8 -1 -3 -3 4 -9 7 -14 7 -6 0 -7 -5 -4 -10 4
-6 -4 -5 -19 1 -20 9 -23 15 -15 25 8 10 6 13 -10 11 -12 -1 -21 -4 -21 -7 0
-3 -7 -15 -15 -26 -14 -17 -15 -16 -1 12 14 29 14 33 -1 45 -14 12 -15 11 -8
-10 5 -16 4 -21 -4 -17 -6 4 -11 13 -11 21 0 17 -27 27 -34 12 -3 -8 -5 -8 -5
-1 -1 6 7 18 16 25 9 8 14 9 10 3 -4 -7 -1 -14 7 -17 19 -7 30 22 15 39 -6 7
-7 19 -3 25 4 7 3 9 -3 6 -6 -4 -17 1 -24 10 -12 14 -11 15 11 9 l25 -7 -24
14 c-15 9 -20 17 -12 21 6 4 15 5 20 1 5 -3 12 -2 15 3 9 14 -32 11 -44 -4 -7
-7 -16 -11 -21 -8 -5 3 -9 0 -9 -6 0 -7 6 -10 14 -7 10 4 14 0 11 -13 -2 -12
5 -26 18 -36 12 -9 15 -14 7 -12 -8 3 -20 -2 -26 -10 -9 -12 -13 -12 -19 -2
-5 9 -4 11 3 6 7 -4 12 -3 12 3 0 5 -6 12 -12 14 -10 4 -10 6 0 6 9 1 8 7 -4
26 -8 13 -13 29 -10 34 4 5 2 12 -4 16 -5 3 -10 1 -10 -4 0 -6 -8 -11 -17 -11
-17 1 -17 1 0 11 9 5 17 15 17 21 0 7 -6 6 -15 -2 -9 -7 -18 -10 -22 -6 -3 3
0 6 7 6 9 0 7 5 -6 15 -18 15 -18 15 0 8 14 -5 17 -3 11 7 -5 9 -4 11 4 6 6
-4 8 -12 5 -18 -4 -7 -2 -8 5 -4 6 4 14 0 17 -9 5 -12 9 -13 14 -5 5 9 9 9 14
1 4 -6 2 -11 -4 -11 -6 0 -8 -5 -4 -11 4 -8 10 -6 17 7 7 13 7 19 -1 22 -7 2
-10 8 -6 13 3 5 1 9 -4 9 -5 0 -14 12 -20 26 -7 14 -16 23 -21 20 -5 -4 -11
-1 -13 5 -3 9 -10 9 -27 -1 -21 -11 -23 -10 -18 4 4 9 -3 26 -17 41 -21 22
-25 23 -36 10 -16 -19 -41 -2 -33 23 4 13 3 14 -5 3 -6 -8 -12 -10 -16 -3 -4
6 2 15 11 21 16 10 16 10 -3 8 -12 -2 -33 -10 -47 -20 -15 -9 -30 -17 -34 -17
-4 0 0 5 10 11 9 6 15 15 11 21 -5 7 -8 7 -13 0 -4 -7 -12 -8 -21 -2 -13 8
-12 10 3 10 20 0 22 11 5 29 -10 11 -10 12 -1 7 8 -5 11 -2 7 7 -3 8 -1 18 4
21 5 3 12 -3 15 -14 3 -10 1 -20 -4 -22 -6 -2 -3 -12 4 -22 11 -15 16 -16 22
-6 5 9 4 11 -3 6 -7 -4 -12 -1 -12 9 0 9 5 13 10 10 6 -3 10 -1 10 4 0 6 -5
11 -11 11 -7 0 -9 9 -6 21 3 12 3 18 0 15 -4 -3 -12 -1 -20 5 -7 6 -13 8 -13
3 0 -10 -29 28 -30 40 0 5 8 2 18 -5 15 -12 16 -12 5 2 -7 9 -9 20 -5 24 4 5
2 5 -4 2 -6 -4 -20 1 -30 9 -18 15 -18 15 9 9 15 -3 27 -2 27 3 0 14 -48 12
-61 -4 -7 -8 -8 -14 -3 -13 26 5 26 -3 0 -16 -27 -14 -31 -14 -43 0 -7 8 -8
10 -1 5 20 -16 31 -11 17 8 -7 9 -9 14 -5 10 13 -11 37 27 30 47 -5 13 -9 14
-15 4 -6 -10 -11 -10 -25 2 -11 9 -15 9 -10 2 5 -9 -1 -13 -19 -13 -20 0 -26
-4 -22 -15 4 -8 1 -17 -5 -21 -6 -4 -8 -3 -5 3 10 17 -18 46 -49 50 -28 4 -61
35 -43 41 13 5 1 22 -14 18 -7 -1 -9 -1 -4 1 4 3 4 9 1 14 -4 6 -11 6 -19 -1
-9 -8 -15 -8 -20 0 -4 6 -3 10 2 9 20 -3 25 2 13 16 -7 9 -10 18 -7 22 12 11
-14 32 -31 26 -13 -4 -12 -2 3 10 20 17 20 17 -3 23 -18 5 -21 9 -10 16 9 7 7
8 -9 5 -17 -4 -20 -1 -15 12 5 13 3 14 -10 3 -13 -10 -17 -10 -22 3 -6 17 2
45 13 45 4 0 8 -7 8 -15 0 -8 -4 -12 -9 -9 -4 3 -8 0 -8 -6 0 -6 6 -10 13 -9
17 3 67 -22 61 -32 -2 -4 4 -12 13 -18 11 -6 13 -11 5 -11 -7 0 -10 -5 -6 -11
5 -8 9 -8 14 1 5 8 9 6 14 -6 4 -10 1 -21 -6 -25 -10 -7 -10 -11 0 -21 9 -9
12 -9 12 5 0 9 6 17 13 17 7 0 17 8 24 18 9 15 8 19 -2 19 -8 0 -13 -3 -12 -6
1 -3 -1 -7 -5 -8 -5 -2 -8 0 -7 3 0 4 -11 14 -26 24 -28 18 -30 27 -13 48 6 7
8 15 4 19 -3 3 -6 1 -6 -5 0 -7 -5 -12 -11 -12 -5 0 -7 5 -4 10 5 9 -9 14 -18
8 -8 -6 -37 25 -32 32 3 5 0 12 -6 16 -7 4 -9 3 -6 -3 4 -6 0 -14 -9 -17 -11
-4 -14 -1 -10 12 4 13 0 18 -14 19 -25 2 -32 -9 -18 -27 8 -12 9 -12 4 3 -3 9
-2 17 3 17 14 0 20 -39 8 -47 -6 -3 -13 -1 -15 5 -2 7 -8 10 -13 7 -5 -4 -6 2
-2 12 6 16 5 17 -12 3 -11 -9 -16 -10 -11 -2 4 6 3 12 -3 12 -5 0 -12 -6 -15
-12 -3 -7 -3 -3 0 10 3 12 2 22 -3 21 -22 -4 -32 3 -30 20 1 12 6 17 15 14 10
-4 11 -8 2 -13 -9 -5 -9 -9 -1 -14 6 -4 11 -1 11 6 0 7 7 2 17 -11 l16 -24 14
28 c8 15 12 29 10 32 -3 2 -8 -5 -12 -16 -3 -12 -11 -21 -16 -21 -6 0 -8 4 -5
8 3 5 -6 15 -19 22 -13 7 -22 18 -18 23 3 6 1 7 -5 3 -6 -3 -16 3 -22 14 -6
11 -8 20 -4 20 3 0 1 6 -5 13 -6 8 -8 16 -5 20 3 3 -4 11 -17 18 -22 11 -22
12 -4 25 10 8 14 14 9 14 -6 0 -15 -5 -22 -12 -9 -9 -12 -9 -12 -1 0 7 5 15
10 18 6 3 10 12 10 18 0 7 -6 4 -14 -5 -7 -10 -16 -15 -19 -11 -4 3 -2 12 4
20 9 9 8 13 0 13 -6 0 -11 -6 -11 -12 0 -9 -4 -8 -10 2 -13 21 -12 30 3 26 6
-1 9 -1 4 1 -4 3 -4 10 -1 16 4 7 -8 -3 -25 -21 -20 -22 -37 -32 -48 -28 -8 4
-22 1 -29 -5 -12 -10 -13 -8 -8 5 5 12 14 16 30 12 19 -5 22 -3 19 13 -3 14 1
18 11 14 8 -3 14 0 14 7 0 6 -5 8 -10 5 -6 -3 -13 1 -16 9 -8 21 -30 20 -38 0
-5 -14 -4 -15 8 -5 17 14 28 1 16 -19 -7 -12 -12 -11 -31 5 -22 20 -22 20 -15
-2 4 -13 3 -23 -2 -23 -5 0 -9 10 -8 23 1 12 6 21 12 20 5 -1 10 10 11 25 0
15 -1 19 -4 10 -2 -10 -9 -19 -14 -19 -5 -1 -15 -2 -21 -3 -7 -1 -20 4 -30 12
-9 7 -25 15 -35 16 -10 2 -19 9 -19 17 -3 31 -6 33 -14 14 -7 -16 -9 -17 -9
-3 -1 9 4 20 9 23 6 3 10 11 10 17 0 6 -6 6 -15 -2 -11 -9 -19 -10 -26 -3 -8
8 -7 13 2 18 8 5 10 4 5 -3 -4 -7 -3 -12 3 -12 27 0 18 22 -13 35 -20 9 -36
16 -36 18 0 1 13 2 29 2 16 0 27 -4 24 -9 -4 -5 0 -6 7 -1 9 6 11 4 5 -5 -6
-9 -4 -11 5 -5 9 6 11 4 5 -6 -7 -11 -5 -11 11 1 29 22 30 24 13 17 -25 -8
-39 11 -28 40 6 16 5 22 -1 18 -6 -3 -10 -12 -10 -19 0 -8 -9 -16 -20 -19 -10
-3 -19 -2 -18 2 2 19 -3 24 -12 11 -5 -8 -10 -10 -10 -4 0 6 8 18 17 25 14 12
16 12 8 0 -6 -10 -4 -12 5 -6 9 6 11 4 6 -6 -4 -8 0 -5 8 5 19 23 20 36 5 36
-5 0 -7 -4 -4 -10 3 -5 2 -10 -3 -10 -6 0 -13 7 -16 16 -8 21 -8 26 2 20 4 -2
14 5 22 17 12 20 12 21 -3 9 -9 -8 -22 -10 -29 -6 -7 4 -9 3 -5 -1 4 -5 -1
-14 -12 -20 -15 -7 -18 -14 -11 -25 8 -12 10 -12 10 5 0 15 3 16 12 7 10 -10
10 -15 -2 -22 -11 -7 -20 -3 -33 15 -10 14 -23 23 -28 19 -5 -3 -9 -1 -9 4 0
6 7 13 16 16 10 4 13 2 8 -6 -5 -7 -3 -8 6 -3 9 6 11 4 5 -6 -8 -12 -6 -12 8
0 18 15 23 26 7 16 -5 -3 -10 -2 -10 4 0 5 6 11 13 14 6 3 2 4 -10 4 -13 -1
-23 -5 -23 -9 0 -4 -9 -8 -21 -8 -15 0 -19 -5 -15 -15 5 -13 1 -12 -19 2 -25
19 -28 41 -4 34 29 -7 42 -6 45 7 1 7 0 8 -3 2 -2 -5 -9 -10 -14 -10 -6 0 -8
4 -4 9 3 6 -3 9 -12 9 -10 0 -27 3 -38 7 -17 6 -18 5 -5 -5 13 -10 13 -11 -2
-6 -21 6 -23 -5 -5 -23 10 -10 9 -11 -5 -6 -25 10 -22 32 8 62 14 14 19 23 11
20 -9 -3 -18 -3 -20 1 -2 4 -2 2 -1 -5 4 -18 -13 -26 -19 -9 -3 7 1 23 9 35
13 18 13 20 -1 15 -8 -3 -16 -11 -17 -18 -4 -33 -3 -42 7 -49 6 -5 4 -7 -5 -4
-8 2 -14 10 -13 16 4 15 -14 14 -19 -1 -3 -7 -7 -5 -11 6 -4 9 -3 15 2 11 5
-3 12 -1 16 5 3 5 -1 10 -11 10 -13 0 -14 3 -5 13 11 14 5 27 -11 27 -5 0 -6
-6 -2 -12 5 -9 2 -9 -9 1 -19 15 -23 1 -5 -17 8 -8 8 -12 1 -12 -16 0 -25 31
-13 45 14 16 0 28 -17 13 -11 -8 -12 -7 -7 6 3 9 10 16 16 16 5 0 6 5 2 11 -4
8 -9 8 -17 0 -6 -6 -15 -11 -20 -11 -5 0 1 8 14 18 12 11 23 25 25 33 1 8 5
23 9 34 4 14 2 12 -9 -5 -8 -14 -16 -23 -16 -20 -1 3 -3 14 -5 24 -6 30 -38
46 -51 24 -5 -7 -3 -8 6 -3 9 6 11 4 5 -5 -5 -9 -4 -11 3 -6 7 4 17 4 23 0 8
-4 7 -9 -2 -15 -20 -12 -50 20 -44 45 3 12 2 16 -1 9 -4 -9 -11 -7 -26 7 -15
14 -25 17 -34 9 -8 -6 -14 -6 -18 0 -3 5 -1 11 4 13 7 2 5 11 -4 23 -14 19
-15 19 -10 -5 5 -24 5 -24 -10 -7 -8 11 -12 25 -9 33 6 17 -9 18 -25 2 -7 -7
-12 -8 -12 -2 0 6 5 15 12 22 9 9 9 12 -1 12 -8 0 -10 8 -6 23 5 17 4 19 -4 7
-6 -8 -8 -23 -5 -32 3 -10 0 -18 -7 -18 -9 0 -9 -3 1 -15 6 -8 17 -13 22 -12
6 1 13 -4 15 -11 3 -8 -1 -10 -13 -5 -10 4 -15 2 -11 -3 8 -13 -10 -41 -20
-31 -4 5 -3 11 3 15 14 10 11 26 -8 45 -12 12 -18 14 -22 4 -3 -8 -8 -7 -16 6
-10 15 -14 16 -28 5 -15 -12 -16 -11 -3 5 8 11 18 14 25 8 19 -15 45 -9 43 11
-1 17 -5 20 -36 22 -8 1 -15 9 -17 19 -1 9 2 14 8 11 12 -8 6 29 -7 38 -6 5
-5 8 3 8 7 0 11 4 8 9 -3 5 1 14 10 21 11 10 18 10 26 2 14 -14 38 -16 38 -3
0 5 -7 8 -16 7 -9 0 -19 5 -22 13 -3 9 0 11 8 6 8 -5 11 -4 6 3 -4 7 -184 11
-585 11 -486 0 -580 -2 -584 -14z m1109 -27 c-18 -26 -22 -17 -5 14 6 11 13
17 16 15 3 -3 -2 -16 -11 -29z m-1060 -20 c5 -7 3 -8 -6 -3 -10 6 -12 3 -8
-13 4 -12 1 -25 -4 -29 -7 -3 -8 -1 -4 5 4 7 2 12 -4 12 -8 0 -8 6 0 20 12 23
16 24 26 8z m29 2 c3 -5 1 -10 -4 -10 -6 0 -11 5 -11 10 0 6 2 10 4 10 3 0 8
-4 11 -10z m-15 -44 c0 -2 -8 -10 -17 -17 -16 -13 -17 -12 -4 4 13 16 21 21
21 13z m-5 -55 c3 -5 2 -12 -3 -15 -5 -3 -9 1 -9 9 0 17 3 19 12 6z m1085 -1
c0 -5 -5 -10 -11 -10 -5 0 -7 5 -4 10 3 6 8 10 11 10 2 0 4 -4 4 -10z m-1155
-26 c-1 -10 4 -23 10 -27 6 -5 3 -7 -8 -3 -12 4 -21 -1 -27 -17 -5 -12 -9 -16
-9 -9 -1 6 -8 12 -17 12 -12 0 -11 5 7 20 15 12 19 19 10 20 -11 0 -11 3 -1
15 17 20 35 14 35 -11z m38 7 c-4 -3 -11 -10 -15 -15 -4 -4 -6 1 -5 12 1 12 6
18 15 15 7 -3 10 -9 5 -12z m1129 -48 c-6 -3 -10 -9 -6 -14 3 -5 1 -9 -4 -9
-21 0 -19 26 2 27 11 0 15 -1 8 -4z m-1150 -10 c-6 -3 -10 -9 -7 -14 4 -5 -1
-6 -9 -3 -23 9 -19 20 7 21 12 0 16 -1 9 -4z m-62 -13 c0 -5 -5 -10 -11 -10
-5 0 -7 5 -4 10 3 6 8 10 11 10 2 0 4 -4 4 -10z m1325 -21 c9 16 22 6 51 -40
18 -30 30 -39 43 -34 11 3 24 -2 32 -12 9 -11 10 -14 2 -9 -7 4 -13 2 -13 -4
0 -7 -6 -8 -19 -1 -10 6 -22 7 -26 3 -5 -4 -5 -2 -1 5 3 6 -3 18 -14 26 -11 7
-17 17 -13 20 10 11 -12 8 -25 -3 -6 -6 -10 -7 -7 -3 8 10 -26 43 -37 36 -6
-3 -15 1 -20 8 -7 11 -11 11 -15 2 -2 -7 -9 -13 -14 -13 -5 0 -2 11 7 25 l17
26 22 -21 c15 -14 25 -18 30 -11z m-2310 1 c-3 -5 -1 -19 5 -30 9 -16 8 -19
-6 -13 -10 4 -15 2 -11 -3 8 -13 -10 -41 -20 -31 -4 5 -2 12 6 16 10 7 10 9
-2 14 -20 8 -30 -19 -16 -46 9 -21 9 -21 -5 -3 -8 10 -20 15 -26 11 -8 -5 -5
-11 7 -21 17 -13 17 -14 0 -8 -13 5 -16 2 -11 -10 3 -9 1 -16 -6 -16 -6 0 -9
4 -6 9 3 5 -1 14 -9 21 -14 12 -13 16 6 37 13 12 19 23 15 23 -5 0 -3 7 4 15
9 11 15 12 20 5 4 -7 15 -2 31 14 25 27 34 33 24 16z m105 0 c0 -5 -5 -10 -11
-10 -5 0 -7 5 -4 10 3 6 8 10 11 10 2 0 4 -4 4 -10z m130 -32 c0 -4 -5 -8 -11
-8 -5 0 -7 -4 -4 -10 3 -5 2 -10 -3 -10 -5 0 -9 16 -9 36 0 33 2 35 14 18 7
-10 13 -21 13 -26z m790 32 c8 -5 12 -11 10 -14 -3 -2 -14 2 -24 10 -22 15
-10 19 14 4z m-620 -4 c0 -2 -7 -7 -16 -10 -8 -3 -12 -2 -9 4 6 10 25 14 25 6z
m335 -6 c3 -5 1 -10 -4 -10 -6 0 -11 5 -11 10 0 6 2 10 4 10 3 0 8 -4 11 -10z
m-465 -23 c0 5 7 10 15 10 21 0 4 -16 -22 -21 -12 -3 -20 1 -20 10 0 10 4 11
14 3 7 -7 13 -7 13 -2z m706 -16 c0 -16 -3 -17 -14 -9 -12 10 -7 19 13 28 1 0
1 -9 1 -19z m1320 8 c3 -6 1 -16 -6 -22 -10 -9 -11 -9 -5 2 4 8 2 17 -6 22 -9
6 -10 9 -2 9 6 0 15 -5 19 -11z m-2262 -15 c3 -8 2 -12 -4 -9 -6 3 -10 10 -10
16 0 14 7 11 14 -7z m101 -22 c-3 -3 -11 0 -18 7 -9 10 -8 11 6 5 10 -3 15 -9
12 -12z m139 9 c3 -4 -6 -6 -19 -3 -14 2 -25 6 -25 8 0 8 39 4 44 -5z m80 0
c3 -4 -6 -6 -19 -3 -14 2 -25 6 -25 8 0 8 39 4 44 -5z m221 -1 c3 -5 1 -10 -4
-10 -6 0 -11 5 -11 10 0 6 2 10 4 10 3 0 8 -4 11 -10z m59 1 c3 -5 -2 -15 -12
-22 -15 -12 -16 -12 -5 2 7 9 10 19 6 22 -3 4 -4 7 0 7 3 0 8 -4 11 -9z m202
-16 c2 -16 -33 -12 -50 6 -8 8 -5 8 12 0 21 -11 27 -8 22 14 -1 6 2 6 6 2 4
-4 9 -14 10 -22z m-516 1 c0 -3 -4 -8 -10 -11 -5 -3 -10 -1 -10 4 0 6 5 11 10
11 6 0 10 -2 10 -4z m80 -6 c0 -5 -2 -10 -4 -10 -3 0 -8 5 -11 10 -3 6 -1 10
4 10 6 0 11 -4 11 -10z m40 0 c0 -5 -2 -10 -4 -10 -3 0 -8 5 -11 10 -3 6 -1
10 4 10 6 0 11 -4 11 -10z m1870 6 c0 -2 -8 -10 -17 -17 -16 -13 -17 -12 -4 4
13 16 21 21 21 13z m-2453 -56 c-1 -12 -5 -16 -10 -11 -5 5 -6 14 -3 20 11 16
15 13 13 -9z m49 -68 c-17 -16 -18 -16 -5 5 7 12 15 20 18 17 3 -2 -3 -12 -13
-22z m-15 -29 c13 -16 12 -17 -3 -4 -14 11 -18 11 -18 1 0 -8 -3 -11 -6 -7 -5
5 3 27 10 27 2 0 10 -8 17 -17z m2585 -15 c4 -7 4 -10 -1 -6 -4 4 -15 2 -24
-5 -14 -11 -14 -10 -2 6 16 20 18 21 27 5z m-3318 -52 c-8 -6 -14 -17 -12 -24
1 -7 0 -8 -3 -2 -2 5 -9 10 -14 10 -6 0 -8 -4 -5 -9 9 -15 -18 -31 -34 -21
-18 12 -33 13 -26 2 8 -13 -11 -35 -24 -27 -8 5 -6 13 9 29 12 12 18 25 15 29
-4 3 7 5 25 2 17 -2 31 1 31 6 0 6 4 8 9 4 6 -3 15 5 22 17 9 17 14 19 17 9 3
-8 -2 -19 -10 -25z m3365 8 c-7 -19 -10 -18 -16 5 -3 13 -1 18 9 14 7 -2 10
-11 7 -19z m-3293 8 c0 -5 -7 -9 -15 -9 -8 0 -12 4 -9 9 3 4 9 8 15 8 5 0 9
-4 9 -8z m465 -11 c3 -6 -3 -9 -14 -8 -11 0 -17 5 -15 9 7 11 22 10 29 -1z
m-169 -17 c15 3 19 -2 20 -23 1 -14 -1 -20 -3 -13 -3 6 -9 12 -14 12 -6 0 -7
-5 -4 -10 4 -6 -4 -6 -19 1 -14 7 -24 19 -23 30 1 12 5 15 12 9 6 -5 20 -8 31
-6z m-356 -24 c-6 -11 -12 -20 -14 -20 -2 0 -2 9 1 20 3 11 9 20 15 20 5 0 4
-9 -2 -20z m550 1 c0 -5 -7 -12 -16 -15 -14 -5 -15 -4 -4 9 14 17 20 19 20 6z
m-383 -16 c0 -8 -4 -12 -9 -9 -5 3 -6 10 -3 15 9 13 12 11 12 -6z m420 -7 c2
-17 0 -19 -7 -8 -5 8 -6 18 -4 22 8 12 10 10 11 -14z m-617 8 c0 -2 -8 -10
-17 -17 -16 -13 -17 -12 -4 4 13 16 21 21 21 13z m337 -13 c0 -8 -6 -9 -19 -2
-10 5 -18 11 -18 12 0 2 8 3 18 3 10 0 19 -6 19 -13z m-382 -14 c-4 -5 -12 -9
-18 -8 -9 0 -8 2 1 6 6 2 9 10 6 15 -4 7 -2 8 5 4 6 -4 9 -12 6 -17z m340 3
c-3 -3 -11 0 -18 7 -9 10 -8 11 6 5 10 -3 15 -9 12 -12z m105 -6 c0 -2 -7 -7
-16 -10 -8 -3 -12 -2 -9 4 6 10 25 14 25 6z m3135 -7 c2 -3 -8 -5 -25 -5 -16
0 -27 3 -25 6 5 8 42 6 50 -1z m-3615 -44 c0 -2 -10 -9 -22 -15 -22 -11 -22
-10 -4 4 21 17 26 19 26 11z m-6 -33 c3 -5 -1 -9 -9 -9 -8 0 -12 4 -9 9 3 4 7
8 9 8 2 0 6 -4 9 -8z m-34 -66 c0 -2 -8 -10 -17 -17 -16 -13 -17 -12 -4 4 13
16 21 21 21 13z m3714 -22 c3 -8 2 -12 -4 -9 -6 3 -10 10 -10 16 0 14 7 11 14
-7z m93 -26 c10 -17 14 -42 5 -33 -4 4 -8 11 -8 16 -1 5 -2 12 -3 15 0 4 -7 1
-15 -5 -11 -9 -16 -9 -22 0 -4 8 -3 9 4 5 7 -4 12 -2 12 3 0 15 17 14 27 -1z
m-3988 -5 c-3 -20 2 -34 10 -29 5 3 14 0 20 -8 9 -10 7 -17 -6 -27 -16 -13
-17 -12 -5 3 16 20 6 27 -30 22 -16 -1 -28 2 -28 7 0 6 -4 7 -10 4 -5 -3 -10
-1 -10 5 0 7 -5 6 -14 -2 -16 -15 -12 -29 7 -24 7 1 9 1 4 -1 -4 -3 -4 -10 0
-16 3 -7 3 -9 -2 -5 -4 4 -15 2 -24 -5 -14 -10 -14 -10 -4 4 19 23 3 32 -21
12 -21 -18 -21 -18 -2 5 20 23 10 31 -13 10 -11 -11 -11 -9 0 9 7 12 16 20 20
17 4 -2 10 0 14 5 5 10 36 8 54 -3 5 -3 14 1 21 9 14 16 21 19 19 8z m-3 -70
c-1 -7 -6 -16 -10 -20 -4 -4 -6 -1 -4 7 2 9 -4 14 -14 14 -10 -1 -15 2 -13 6
8 13 43 7 41 -7z m4180 -25 c0 -4 14 -19 33 -33 19 -14 30 -25 23 -25 -7 0
-12 -4 -12 -10 0 -5 5 -9 12 -7 7 1 12 -7 12 -18 0 -11 6 -23 13 -28 7 -4 10
-14 7 -22 -4 -8 -11 -12 -16 -9 -6 4 -5 10 3 16 10 6 7 7 -8 3 -23 -6 -32 8
-13 20 6 4 8 11 5 16 -4 5 -13 3 -21 -6 -9 -8 -20 -15 -26 -15 -6 0 0 9 13 20
13 10 19 19 14 20 -6 0 -16 -5 -23 -12 -8 -8 -12 -8 -12 -1 0 6 7 14 16 17 23
9 -2 38 -27 31 -20 -7 -35 10 -18 21 8 4 9 3 5 -4 -4 -7 -3 -12 3 -12 20 0 21
19 1 33 -13 9 -18 20 -14 31 6 16 7 16 19 -1 7 -10 12 -21 11 -25z m-4116 12
c0 -5 -2 -10 -4 -10 -3 0 -8 5 -11 10 -3 6 -1 10 4 10 6 0 11 -4 11 -10z
m4073 -15 c4 -8 3 -16 -1 -19 -4 -3 -9 4 -9 15 -2 23 3 25 10 4z m121 -174
c-2 -3 -12 3 -22 13 -16 17 -16 18 5 5 12 -7 20 -15 17 -18z m31 -29 c-3 -3
-11 0 -18 7 -9 10 -8 11 6 5 10 -3 15 -9 12 -12z m-5 -22 c0 -5 -2 -10 -4 -10
-3 0 -8 5 -11 10 -3 6 -1 10 4 10 6 0 11 -4 11 -10z m70 -19 c0 -4 -6 -8 -13
-8 -8 0 -14 6 -14 13 0 7 6 10 14 7 7 -3 13 -8 13 -12z m102 5 c3 2 8 -2 12
-11 4 -13 2 -14 -14 -5 -10 5 -22 16 -26 23 -6 9 -5 9 8 0 8 -7 17 -10 20 -7z
m-18 -67 c3 -3 -5 -5 -19 -5 -13 0 -22 3 -19 7 4 8 30 6 38 -2z m86 -133 c0
-3 -4 -8 -10 -11 -5 -3 -10 -1 -10 4 0 6 5 11 10 11 6 0 10 -2 10 -4z m95 -67
c11 -16 1 -19 -13 -3 -7 8 -8 14 -3 14 5 0 13 -5 16 -11z m112 -4 c-2 -5 -9
-10 -14 -10 -6 0 -15 -3 -19 -7 -12 -12 -21 -9 -28 8 -3 8 -2 12 3 9 5 -3 12
-2 15 3 7 12 47 9 43 -3z m46 -56 c-8 -8 -5 -17 11 -32 11 -12 24 -21 29 -19
4 1 2 -7 -5 -18 -14 -21 -28 -27 -28 -10 0 6 5 10 11 10 5 0 7 5 4 10 -5 8
-11 7 -21 -1 -10 -8 -14 -8 -14 0 0 6 5 11 10 11 6 0 10 5 10 11 0 5 -4 8 -8
5 -4 -2 -14 4 -21 16 -7 11 -8 17 -2 13 6 -3 11 -1 11 4 0 6 5 11 12 11 9 0 9
-3 1 -11z m-29 -35 c9 -24 2 -26 -12 -4 -7 11 -8 20 -3 20 5 0 12 -7 15 -16z
m56 -78 c0 -2 -9 -2 -20 1 -11 3 -20 9 -20 15 0 5 9 4 20 -2 11 -6 20 -12 20
-14z m77 -33 c-4 -4 5 -19 20 -35 23 -24 29 -26 42 -14 14 12 18 11 35 -11
l19 -26 -27 7 c-21 5 -26 4 -20 -6 4 -7 -1 -5 -12 4 -14 13 -23 14 -38 6 -14
-8 -17 -7 -12 1 4 6 2 11 -4 11 -7 0 -9 8 -5 23 6 18 5 20 -6 10 -16 -16 -29
-17 -29 -2 0 5 4 8 9 5 5 -3 11 3 14 14 3 11 9 20 13 20 4 0 4 -3 1 -7z m-17
-74 c0 -5 -4 -9 -8 -9 -5 0 -9 7 -9 15 0 8 4 12 9 9 4 -3 8 -9 8 -15z m65 -19
c3 -6 -1 -7 -9 -4 -18 7 -21 14 -7 14 6 0 13 -4 16 -10z m35 -15 c-14 -8 -29
-14 -35 -14 -5 0 1 6 15 14 14 8 30 14 35 14 6 0 -1 -6 -15 -14z m90 1 c1 11
29 -38 30 -50 0 -5 -10 0 -22 11 -23 20 -62 25 -85 10 -6 -4 -15 -2 -19 5 -4
7 -4 10 0 6 4 -4 22 2 39 12 23 14 34 16 44 8 7 -6 13 -7 13 -2z m-76 -72 c3
-8 2 -12 -4 -9 -6 3 -10 10 -10 16 0 14 7 11 14 -7z m96 -74 c0 -5 -4 -10 -10
-10 -5 0 -10 5 -10 10 0 6 5 10 10 10 6 0 10 -4 10 -10z m299 -90 c-1 -3 3
-14 8 -25 10 -18 8 -20 -13 -20 -29 2 -38 10 -29 25 5 8 11 7 23 -2 14 -12 14
-10 3 11 -10 17 -10 22 -1 19 6 -2 10 -6 9 -8z m-254 -18 c-3 -3 -11 0 -18 7
-9 10 -8 11 6 5 10 -3 15 -9 12 -12z m22 -17 c0 -8 -4 -12 -9 -9 -5 3 -6 10
-3 15 9 13 12 11 12 -6z m324 -18 c-10 -9 -11 -8 -5 6 3 10 9 15 12 12 3 -3 0
-11 -7 -18z m-268 -12 c-7 -21 -12 -19 -10 4 0 11 5 18 9 15 4 -3 5 -11 1 -19z
m302 15 c3 -5 1 -10 -4 -10 -6 0 -11 5 -11 10 0 6 2 10 4 10 3 0 8 -4 11 -10z
m-155 -14 c0 -3 -4 -8 -10 -11 -5 -3 -10 -1 -10 4 0 6 5 11 10 11 6 0 10 -2
10 -4z m191 -13 c13 -16 12 -17 -3 -4 -10 7 -18 15 -18 17 0 8 8 3 21 -13z
m99 -133 c8 -5 11 -10 5 -10 -5 0 -17 5 -25 10 -8 5 -10 10 -5 10 6 0 17 -5
25 -10z m46 -54 c2 -14 -20 -16 -33 -2 -4 4 -1 6 7 4 9 -2 14 3 12 12 -2 8 0
11 4 7 4 -4 9 -14 10 -21z m-15 -43 c13 -16 12 -17 -3 -4 -10 7 -18 15 -18 17
0 8 8 3 21 -13z m247 -6 c7 -5 12 -4 12 2 0 15 27 14 36 -1 5 -8 2 -9 -9 -5
-9 3 -19 1 -23 -5 -4 -6 -3 -8 2 -5 6 3 16 1 24 -5 12 -8 11 -9 -4 -4 -15 5
-17 2 -13 -14 7 -28 -2 -25 -13 5 -10 25 -10 25 -36 8 -27 -17 -27 -17 -16 4
9 16 9 23 -1 27 -6 2 -3 4 8 3 11 -2 26 -6 33 -10z m-179 -21 c9 -11 9 -16 -1
-22 -7 -4 -10 -4 -6 1 4 4 3 14 -3 22 -6 7 -9 13 -6 13 2 0 10 -6 16 -14z
m141 -31 c0 -2 -6 -5 -13 -8 -8 -3 -14 1 -14 8 0 7 6 11 14 8 7 -3 13 -6 13
-8z m-110 -5 c0 -5 -5 -10 -11 -10 -5 0 -7 5 -4 10 3 6 8 10 11 10 2 0 4 -4 4
-10z m-5765 -139 c3 -5 2 -12 -3 -15 -5 -3 -9 1 -9 9 0 17 3 19 12 6z m-120
-41 c-3 -5 3 -10 15 -10 12 0 19 4 16 8 -3 5 1 9 8 9 10 0 8 -9 -6 -33 -13
-22 -24 -31 -35 -27 -12 5 -11 9 8 20 20 11 20 13 4 8 -16 -4 -21 0 -22 15 -1
11 3 20 8 20 6 0 7 -4 4 -10z m282 -17 c-4 -3 0 -14 9 -24 12 -13 12 -19 3
-25 -7 -4 -10 -3 -6 3 4 6 0 16 -8 23 -14 11 -12 30 2 30 4 0 3 -3 0 -7z m-21
-72 c-17 -19 -17 -21 8 -45 14 -14 23 -26 20 -26 -3 0 1 -6 8 -14 7 -8 16 -12
19 -10 3 2 6 -4 6 -12 0 -11 -6 -9 -23 7 -19 18 -26 20 -38 10 -13 -11 -15 -9
-11 8 2 11 0 23 -4 25 -16 10 3 76 22 76 5 0 2 -9 -7 -19z m59 9 c3 -5 1 -10
-4 -10 -6 0 -11 5 -11 10 0 6 2 10 4 10 3 0 8 -4 11 -10z m-38 -25 c-4 -8 -2
-17 3 -20 4 -3 11 1 13 7 4 9 6 10 6 1 1 -6 -3 -14 -8 -17 -12 -8 -34 21 -26
34 9 15 18 12 12 -5z m43 -35 c0 -5 -5 -10 -11 -10 -5 0 -7 5 -4 10 3 6 8 10
11 10 2 0 4 -4 4 -10z m25 -140 c3 -6 -1 -7 -9 -4 -18 7 -21 14 -7 14 6 0 13
-4 16 -10z m-10 -60 c3 -5 1 -10 -4 -10 -6 0 -11 5 -11 10 0 6 2 10 4 10 3 0
8 -4 11 -10z m-28 -22 c-3 -8 -6 -5 -6 6 -1 11 2 17 5 13 3 -3 4 -12 1 -19z
m33 -2 c0 -2 -8 -10 -17 -17 -16 -13 -17 -12 -4 4 13 16 21 21 21 13z m-82
-78 c-2 -7 -10 -19 -18 -25 -13 -11 -13 -12 2 -7 12 4 16 1 13 -13 -2 -10 -4
-20 -4 -23 -1 -2 -8 5 -16 17 -13 18 -13 26 -3 43 14 22 29 27 26 8z m58 -57
c-3 -4 6 -13 20 -20 23 -10 24 -14 13 -28 -12 -14 -11 -15 11 -9 19 6 21 5 10
-3 -12 -9 -13 -11 -1 -11 8 0 12 -3 9 -6 -4 -3 -15 -1 -26 5 -13 7 -22 7 -30
-1 -7 -7 -14 -3 -23 13 -18 32 -17 42 1 56 18 15 23 16 16 4z m159 -122 c4 -6
0 -9 -11 -7 -11 2 -18 -2 -17 -8 1 -6 -4 -11 -12 -11 -10 0 -11 4 -2 19 13 20
32 24 42 7z m60 -19 c-3 -5 -12 -10 -18 -10 -7 0 -6 4 3 10 19 12 23 12 15 0z
m54 -36 c-13 -16 -29 -18 -29 -4 0 6 6 9 13 8 6 -2 11 3 9 10 -1 8 2 11 8 7 8
-5 7 -11 -1 -21z m76 -4 c-3 -5 -12 -10 -18 -10 -7 0 -6 4 3 10 19 12 23 12
15 0z m-85 -99 c0 -6 -4 -12 -8 -15 -5 -3 -9 1 -9 9 0 8 4 15 9 15 4 0 8 -4 8
-9z m50 -177 c0 -8 -19 -13 -24 -6 -3 5 1 9 9 9 8 0 15 -2 15 -3z m-50 -55 c0
-5 -4 -8 -9 -4 -6 3 -9 -3 -8 -14 0 -11 10 -22 22 -26 19 -5 19 -6 2 -16 -14
-8 -22 -8 -30 0 -6 6 -7 11 -1 11 5 0 3 4 -5 9 -10 7 -11 13 -2 30 12 22 31
29 31 10z m31 -36 c13 -17 13 -17 -6 -3 -11 8 -22 16 -24 17 -2 2 0 3 6 3 6 0
17 -8 24 -17z m50 -50 c13 -16 12 -17 -3 -4 -10 7 -18 15 -18 17 0 8 8 3 21
-13z m199 -127 c0 -3 -4 -8 -10 -11 -5 -3 -10 -1 -10 4 0 6 5 11 10 11 6 0 10
-2 10 -4z m30 -101 c14 -19 14 -19 -2 -6 -10 7 -18 18 -18 24 0 6 1 8 3 6 1
-2 9 -13 17 -24z m50 -11 c0 -8 -19 -13 -24 -6 -3 5 1 9 9 9 8 0 15 -2 15 -3z
m-46 -136 c-5 -8 -1 -9 12 -4 14 5 16 4 7 -5 -6 -6 -16 -8 -22 -5 -14 9 -14
26 0 26 5 0 7 -5 3 -12z m22 -43 c-1 -8 -6 -18 -11 -22 -4 -4 -5 -2 -1 5 4 7
2 12 -6 12 -9 0 -9 3 2 10 19 12 19 13 16 -5z m-74 -107 c-7 -7 -12 -8 -12 -2
0 14 12 26 19 19 2 -3 -1 -11 -7 -17z m83 -98 c-3 -5 -12 -10 -18 -10 -7 0 -6
4 3 10 19 12 23 12 15 0z m-32 -26 c3 -4 -1 -17 -10 -30 -17 -26 -7 -34 11 -8
10 13 12 13 12 -4 0 -13 -6 -18 -21 -17 -11 1 -21 4 -22 5 -3 2 -15 6 -30 9
-8 1 38 51 47 51 4 0 9 -3 13 -6z m3 -129 c0 -28 -8 -24 -13 5 -2 11 1 20 5
20 4 0 8 -11 8 -25z m44 -21 c0 -8 -19 -13 -24 -6 -3 5 1 9 9 9 8 0 15 -2 15
-3z m-97 -19 c-3 -9 -8 -14 -10 -11 -3 3 -2 9 2 15 9 16 15 13 8 -4z m47 -40
c5 3 11 1 14 -4 4 -5 -2 -8 -11 -7 -9 2 -18 8 -19 15 -1 6 0 7 3 1 2 -5 9 -8
13 -5z m25 -34 c3 -5 2 -12 -3 -15 -5 -3 -9 1 -9 9 0 17 3 19 12 6z m-34 -133
c-11 -11 -13 -10 -7 0 4 7 2 21 -5 30 -12 15 -11 15 6 0 16 -15 17 -20 6 -30z
m34 -18 c3 -5 1 -10 -4 -10 -6 0 -11 5 -11 10 0 6 2 10 4 10 3 0 8 -4 11 -10z
m-22 -57 c-7 -2 -13 -9 -13 -14 0 -6 4 -8 8 -5 5 3 9 -2 9 -10 0 -13 -2 -13
-15 0 -15 15 -9 37 11 35 9 0 9 -2 0 -6z m54 -69 c-3 -3 -12 -4 -19 -1 -8 3
-5 6 6 6 11 1 17 -2 13 -5z m4890 -29 c0 -8 -4 -12 -9 -9 -5 3 -6 10 -3 15 9
13 12 11 12 -6z m196 -7 c-2 -5 -10 -8 -18 -8 -8 0 -16 3 -18 8 -3 4 5 7 18 7
13 0 21 -3 18 -7z m-101 -15 c-10 -4 -7 -10 10 -21 13 -9 27 -16 31 -14 5 1 5
-2 2 -8 -5 -8 -13 -6 -26 6 -10 9 -19 13 -19 8 0 -5 -4 -2 -9 6 -11 16 -5 30
12 29 8 0 8 -2 -1 -6z m-72 -13 c0 -5 -5 -10 -11 -10 -5 0 -7 5 -4 10 3 6 8
10 11 10 2 0 4 -4 4 -10z m-4880 -30 c0 -5 -4 -10 -10 -10 -5 0 -10 5 -10 10
0 6 5 10 10 10 6 0 10 -4 10 -10z m4823 -5 c-3 -9 -8 -14 -10 -11 -3 3 -2 9 2
15 9 16 15 13 8 -4z m-4650 -45 c3 -11 1 -18 -4 -14 -5 3 -9 12 -9 20 0 20 7
17 13 -6z m4621 -11 c-2 -4 1 -9 7 -11 6 -2 -2 -9 -17 -16 -27 -11 -27 -11
-10 3 18 14 15 20 -7 16 -5 -1 -6 2 -3 7 3 5 12 9 20 9 8 0 13 -4 10 -8z
m-4634 -61 c0 -16 -16 -7 -34 19 l-20 27 27 -20 c14 -10 27 -22 27 -26z m35 1
c11 -16 1 -19 -13 -3 -7 8 -8 14 -3 14 5 0 13 -5 16 -11z m-15 -19 c0 -5 0
-13 -1 -17 0 -3 7 -10 16 -15 13 -8 14 -13 4 -24 -14 -18 -30 -9 -22 13 4 10
2 14 -4 10 -6 -4 -17 0 -24 9 -10 13 -10 17 2 25 19 12 29 11 29 -1z m4614
-11 c26 4 27 -3 3 -22 -15 -13 -24 -26 -21 -30 11 -10 26 -9 20 2 -8 13 18 21
35 11 7 -5 10 -12 6 -17 -5 -4 -12 -2 -16 6 -7 10 -9 9 -14 -3 -4 -9 -1 -15 5
-13 7 1 12 -4 13 -11 0 -7 5 -16 10 -20 6 -4 11 -13 13 -21 2 -11 0 -12 -11
-3 -8 7 -18 8 -22 4 -5 -4 -5 1 -2 10 3 10 2 20 -3 23 -6 4 -10 0 -10 -7 -1
-7 -6 -3 -13 10 -7 12 -16 20 -19 16 -4 -3 -5 2 -3 13 2 10 4 21 4 26 1 4 8 7
16 7 8 0 15 5 15 10 0 6 -5 9 -11 8 -6 -2 -14 4 -16 12 -4 12 -3 12 5 2 5 -8
12 -13 16 -13z m-4574 -9 c0 -5 -4 -10 -10 -10 -5 0 -10 5 -10 10 0 6 5 10 10
10 6 0 10 -4 10 -10z m94 -81 c9 7 13 18 9 25 -3 6 -2 7 2 3 12 -10 15 -38 4
-31 -5 3 -9 0 -9 -5 0 -6 -7 -11 -16 -11 -9 0 -12 -5 -8 -12 6 -10 5 -10 -7
-1 -12 10 -18 10 -28 0 -10 -9 -11 -8 -5 7 5 14 4 17 -4 12 -9 -6 -9 -1 -1 18
l12 25 17 -22 c15 -18 20 -19 34 -8z m-4 25 c0 -8 -19 -13 -24 -6 -3 5 1 9 9
9 8 0 15 -2 15 -3z m4465 -24 c3 -5 1 -10 -4 -10 -6 0 -11 5 -11 10 0 6 2 10
4 10 3 0 8 -4 11 -10z m-4385 -16 c0 -8 -19 -13 -24 -6 -3 5 1 9 9 9 8 0 15
-2 15 -3z m25 -24 c3 -5 1 -10 -4 -10 -6 0 -11 5 -11 10 0 6 2 10 4 10 3 0 8
-4 11 -10z m4359 -18 c3 -5 -1 -9 -9 -9 -8 0 -12 4 -9 9 3 4 7 8 9 8 2 0 6 -4
9 -8z m29 -58 c4 10 13 13 22 9 13 -5 14 -7 3 -14 -10 -7 -10 -9 2 -9 12 0 12
-2 1 -9 -10 -6 -10 -10 -1 -16 8 -5 5 -12 -10 -22 -17 -12 -19 -17 -9 -24 11
-7 11 -9 1 -9 -7 0 -11 -4 -7 -9 3 -5 1 -12 -5 -16 -6 -4 -7 -11 -4 -17 4 -7
2 -8 -5 -4 -9 6 -10 0 -5 -21 6 -24 5 -26 -8 -16 -12 11 -18 9 -32 -6 -10 -11
-15 -24 -12 -29 5 -8 -10 -9 -31 -3 -2 1 -5 1 -8 1 -7 -1 -35 27 -35 34 0 2
14 3 32 1 24 -4 29 -2 20 7 -7 7 -12 16 -12 21 0 5 9 -1 20 -14 16 -20 19 -21
20 -6 0 9 -4 17 -10 17 -5 0 -10 5 -10 11 0 8 4 9 13 0 14 -11 27 -5 27 11 0
5 -4 6 -10 3 -6 -3 -7 1 -3 10 4 11 8 13 13 6 4 -8 13 -4 26 10 19 22 19 22
-6 15 -14 -3 -19 -3 -13 0 10 4 10 11 2 26 -6 11 -8 22 -6 25 3 2 8 -5 12 -16
6 -21 16 -26 28 -14 4 3 -1 12 -11 20 -9 8 -12 12 -6 9 7 -3 17 1 24 9 11 13
8 14 -17 12 -22 -3 -29 0 -29 14 0 16 2 17 17 3 15 -13 17 -13 22 0z m-4325
-48 c-18 -13 -15 -27 5 -22 7 2 9 1 5 -1 -4 -2 -4 -11 -1 -19 3 -7 10 -11 17
-7 6 3 3 -3 -6 -14 -23 -26 -23 -41 0 -20 12 11 22 13 32 7 13 -9 13 -10 0
-11 -8 -1 -19 -1 -24 0 -5 1 -6 -5 -3 -13 4 -9 3 -17 -1 -20 -10 -6 -51 55
-57 84 -4 22 17 54 29 43 3 -4 6 0 6 7 0 7 3 10 7 6 5 -4 0 -13 -9 -20z m82
-51 c0 -7 -30 -13 -34 -7 -3 4 4 9 15 9 10 1 19 0 19 -2z m4157 -10 c0 -8 -4
-12 -9 -9 -5 3 -6 10 -3 15 9 13 12 11 12 -6z m-4146 -22 c13 -16 12 -17 -3
-4 -17 13 -22 21 -14 21 2 0 10 -8 17 -17z m4073 -31 c3 -5 -1 -9 -9 -9 -8 0
-12 4 -9 9 3 4 7 8 9 8 2 0 6 -4 9 -8z m-4064 -22 c0 -5 5 -10 11 -10 5 0 7 5
3 11 -3 6 8 3 25 -5 17 -9 31 -21 31 -27 0 -7 6 -7 18 2 14 11 13 9 -2 -9 -11
-12 -17 -24 -14 -27 3 -3 11 1 18 10 7 8 17 15 22 15 6 0 0 -9 -13 -19 -24
-20 -24 -20 -40 1 -11 14 -18 17 -23 9 -4 -6 -12 -11 -18 -11 -6 0 -8 3 -5 6
3 4 -5 15 -18 26 -14 11 -23 24 -20 29 8 12 25 12 25 -1z m94 2 c3 -5 -1 -9
-9 -9 -8 0 -12 4 -9 9 3 4 7 8 9 8 2 0 6 -4 9 -8z m3872 -40 c-17 -16 -18 -16
-5 5 7 12 15 20 18 17 3 -2 -3 -12 -13 -22z m64 13 c0 -2 -9 -3 -19 -2 -11 0
-18 5 -15 9 4 6 34 0 34 -7z m-3880 -51 c0 -2 -7 -4 -15 -4 -8 0 -15 4 -15 10
0 5 7 7 15 4 8 -4 15 -8 15 -10z m28 -13 c-7 -9 -13 -18 -15 -20 -1 -2 -1 5 0
16 0 11 7 20 14 20 10 0 10 -4 1 -16z m-30 -10 c-3 -16 15 -40 26 -34 6 4 4
-1 -4 -12 -14 -17 -13 -17 9 -10 15 4 21 3 17 -3 -3 -5 -15 -12 -26 -15 -11
-3 -18 -1 -15 3 3 5 -4 12 -16 15 -15 5 -18 10 -10 18 13 13 15 28 4 26 -16
-3 -24 1 -19 9 6 10 35 12 34 3z m43 -14 c-10 -9 -11 -8 -5 6 3 10 9 15 12 12
3 -3 0 -11 -7 -18z m3729 13 c0 -5 -2 -10 -4 -10 -3 0 -8 5 -11 10 -3 6 -1 10
4 10 6 0 11 -4 11 -10z m35 -10 c3 -5 1 -10 -4 -10 -6 0 -11 5 -11 10 0 6 2
10 4 10 3 0 8 -4 11 -10z m-3720 -22 c5 4 5 1 1 -6 -6 -10 -11 -10 -22 -1 -8
6 -14 14 -14 16 0 3 6 0 13 -6 8 -6 18 -7 22 -3z m3697 -7 c6 10 7 7 3 -10 -4
-14 -3 -21 2 -18 8 5 10 -25 3 -43 -1 -3 -2 -8 -2 -12 2 -12 -27 -30 -38 -23
-8 5 -6 11 6 19 12 9 14 15 5 20 -6 4 -9 12 -6 17 4 5 1 9 -6 9 -7 0 -9 3 -6
6 4 4 14 1 24 -7 15 -13 16 -12 9 6 -5 11 -9 27 -11 35 -1 11 -1 11 2 1 4 -12
6 -12 15 0z m38 5 c0 -3 -4 -8 -10 -11 -5 -3 -10 -1 -10 4 0 6 5 11 10 11 6 0
10 -2 10 -4z m-3757 -41 c-3 -9 -8 -14 -10 -11 -3 3 -2 9 2 15 9 16 15 13 8
-4z m54 -91 c-9 -17 -17 -23 -21 -15 -4 6 -3 11 3 11 5 0 13 9 16 21 4 11 9
18 12 16 2 -3 -2 -18 -10 -33z m3253 32 c0 -3 -4 -8 -10 -11 -5 -3 -10 -1 -10
4 0 6 5 11 10 11 6 0 10 -2 10 -4z m114 -24 c2 -4 -5 -9 -17 -9 -17 -2 -19 0
-7 7 18 12 18 12 24 2z m-3220 -20 c3 -5 -1 -9 -9 -9 -8 0 -12 4 -9 9 3 4 7 8
9 8 2 0 6 -4 9 -8z m3376 2 c0 -8 -19 -13 -24 -6 -3 5 1 9 9 9 8 0 15 -2 15
-3z m-340 -24 c-8 -5 -19 -10 -25 -10 -5 0 -3 5 5 10 8 5 20 10 25 10 6 0 3
-5 -5 -10z m220 6 c0 -3 -4 -8 -10 -11 -5 -3 -10 -1 -10 4 0 6 5 11 10 11 6 0
10 -2 10 -4z m-3216 -47 c3 -3 -4 -5 -14 -6 -11 -1 -20 2 -20 7 0 8 25 8 34
-1z m1 -49 c3 -5 1 -10 -4 -10 -6 0 -11 5 -11 10 0 6 2 10 4 10 3 0 8 -4 11
-10z m36 -17 c13 -16 12 -17 -3 -4 -17 13 -22 21 -14 21 2 0 10 -8 17 -17z m6
-30 c-4 -3 -1 -13 6 -22 11 -14 10 -14 -5 -2 -21 15 -23 31 -6 31 6 0 8 -3 5
-7z m76 -103 c-7 -27 -13 -25 -11 4 1 14 5 23 9 20 4 -2 5 -13 2 -24z m2684
15 c0 -8 -4 -12 -9 -9 -5 3 -6 10 -3 15 9 13 12 11 12 -6z m-983 -21 c3 -8 2
-12 -4 -9 -6 3 -10 10 -10 16 0 14 7 11 14 -7z m57 -7 c-10 -9 -11 -8 -5 6 3
10 9 15 12 12 3 -3 0 -11 -7 -18z m233 15 c3 -5 -1 -9 -9 -9 -8 0 -12 4 -9 9
3 4 7 8 9 8 2 0 6 -4 9 -8z m72 -9 c-3 -20 -22 -28 -31 -14 -4 7 0 8 10 5 9
-4 15 -3 14 2 -2 13 0 24 5 24 2 0 3 -8 2 -17z m284 7 c0 -5 -5 -10 -11 -10
-5 0 -7 5 -4 10 3 6 8 10 11 10 2 0 4 -4 4 -10z m-410 -19 c-16 -30 -12 -36
10 -16 11 10 20 15 20 11 0 -4 -10 -16 -22 -26 -20 -16 -25 -17 -40 -4 -11 11
-18 12 -23 4 -3 -5 -11 -8 -16 -4 -6 4 -6 11 2 20 10 13 15 12 32 -3 19 -18
19 -17 13 7 -5 17 -4 20 2 12 7 -11 10 -11 15 2 4 9 9 16 12 16 3 0 1 -9 -5
-19z m-1856 1 c3 -5 -1 -9 -9 -9 -8 0 -12 4 -9 9 3 4 7 8 9 8 2 0 6 -4 9 -8z
m1929 -7 c-3 -9 -8 -14 -10 -11 -3 3 -2 9 2 15 9 16 15 13 8 -4z m117 5 c0 -5
-4 -10 -10 -10 -5 0 -10 5 -10 10 0 6 5 10 10 10 6 0 10 -4 10 -10z m93 -2
c-2 -5 -13 -8 -23 -8 -10 0 -21 3 -23 8 -3 4 8 7 23 7 15 0 26 -3 23 -7z m87
2 c0 -5 -2 -10 -4 -10 -3 0 -8 5 -11 10 -3 6 -1 10 4 10 6 0 11 -4 11 -10z
m260 6 c0 -2 -7 -7 -16 -10 -8 -3 -12 -2 -9 4 6 10 25 14 25 6z m43 -11 c-3
-9 -8 -14 -10 -11 -3 3 -2 9 2 15 9 16 15 13 8 -4z m-136 -13 c-19 -21 -23
-42 -5 -24 9 9 15 9 25 0 12 -9 13 -6 9 18 -4 16 -3 22 1 14 15 -33 38 -46 34
-18 0 4 6 5 14 2 8 -4 15 -1 15 5 0 6 5 11 10 11 18 0 10 -18 -10 -25 -11 -4
-18 -10 -15 -15 3 -4 -2 -13 -10 -20 -14 -11 -19 -7 -16 13 2 11 -17 9 -24 -3
-5 -8 -11 -8 -20 0 -10 8 -15 8 -20 0 -5 -8 -11 -8 -19 -1 -9 7 -16 7 -24 -1
-8 -8 -10 -7 -9 3 4 24 17 38 31 33 7 -3 19 2 26 11 7 8 15 15 18 15 3 0 -2
-8 -11 -18z m158 -3 c-5 -14 -3 -19 3 -15 15 9 22 -7 12 -24 -7 -11 -12 -12
-21 -3 -9 9 -15 8 -27 -3 -10 -11 -18 -12 -25 -5 -8 8 -5 15 8 25 11 8 23 12
27 10 3 -2 9 5 13 16 3 11 9 20 11 20 3 0 2 -10 -1 -21z m-925 -2 c0 -5 -7 -6
-16 -3 -9 4 -24 1 -33 -6 -14 -11 -14 -11 -3 4 14 17 52 21 52 5z m316 -30 c6
-8 3 -8 -9 1 -17 14 -42 8 -32 -8 3 -5 1 -11 -5 -15 -5 -3 -10 1 -10 9 0 8 5
18 10 21 6 4 7 11 4 17 -4 6 1 6 14 -1 12 -6 24 -17 28 -24z m-1881 3 c-4 -6
-1 -18 7 -27 12 -15 11 -15 -9 -2 -26 16 -29 25 -10 32 18 8 19 8 12 -3z m55
-4 c0 -2 -8 -10 -17 -17 -16 -13 -17 -12 -4 4 13 16 21 21 21 13z m1605 -6 c3
-5 1 -10 -4 -10 -6 0 -11 5 -11 10 0 6 2 10 4 10 3 0 8 -4 11 -10z m300 -2 c5
4 5 1 1 -6 -6 -10 -11 -10 -22 -1 -8 6 -14 14 -14 16 0 3 6 0 13 -6 8 -6 18
-7 22 -3z m-1882 -13 c-3 -9 -8 -14 -10 -11 -3 3 -2 9 2 15 9 16 15 13 8 -4z
m1367 -25 c0 -5 -5 -10 -11 -10 -5 0 -7 5 -4 10 3 6 8 10 11 10 2 0 4 -4 4
-10z m-1356 -82 c-3 -4 -9 -8 -15 -8 -5 0 -9 4 -9 8 0 5 7 9 15 9 8 0 12 -4 9
-9z m36 -54 c0 -8 -19 -13 -24 -6 -3 5 1 9 9 9 8 0 15 -2 15 -3z m1314 -33
c-2 -3 -12 3 -22 13 -16 17 -16 18 5 5 12 -7 20 -15 17 -18z m-1379 9 c-3 -5
0 -10 7 -10 8 0 6 -5 -5 -11 -24 -14 -34 -4 -17 16 14 17 25 20 15 5z m44 -24
c-3 -3 -11 5 -18 17 -13 21 -12 21 5 5 10 -10 16 -20 13 -22z m1362 -22 c-10
-13 -19 -18 -23 -11 -10 16 2 36 22 34 17 -1 17 -2 1 -23z m-1401 -4 c-22 -19
-46 -18 -34 1 3 5 9 7 14 4 5 -3 11 -1 15 5 3 5 11 10 17 10 6 0 1 -9 -12 -20z
m60 -6 c0 -8 -19 -13 -24 -6 -3 5 1 9 9 9 8 0 15 -2 15 -3z"/>
<path d="M2439 6185 c-1 -3 -2 -8 -3 -12 -1 -5 -5 -15 -10 -23 -7 -12 -6 -13
4 -3 13 12 23 43 14 43 -2 0 -5 -2 -5 -5z"/>
<path d="M3680 6106 c0 -2 8 -10 18 -17 15 -13 16 -12 3 4 -13 16 -21 21 -21
13z"/>
<path d="M3737 6082 c-3 -4 1 -13 9 -19 7 -7 15 -9 17 -5 3 4 -1 13 -9 19 -7
7 -15 9 -17 5z"/>
<path d="M1400 6060 c-9 -6 -10 -10 -3 -10 6 0 15 5 18 10 8 12 4 12 -15 0z"/>
<path d="M1342 6019 c-17 -21 -19 -29 -10 -35 7 -4 10 -3 5 1 -4 5 3 19 15 32
12 12 20 25 17 27 -2 2 -14 -9 -27 -25z"/>
<path d="M521 5761 c-10 -6 -9 -10 3 -14 8 -3 18 -2 21 3 8 13 -9 20 -24 11z"/>
<path d="M930 5756 c7 -7 13 -7 20 0 6 6 3 10 -10 10 -13 0 -16 -4 -10 -10z"/>
<path d="M4420 5426 c0 -2 8 -10 18 -17 15 -13 16 -12 3 4 -13 16 -21 21 -21
13z"/>
<path d="M4460 5376 c0 -2 8 -10 18 -17 15 -13 16 -12 3 4 -13 16 -21 21 -21
13z"/>
<path d="M5155 4640 c3 -5 11 -10 16 -10 6 0 7 5 4 10 -3 6 -11 10 -16 10 -6
0 -7 -4 -4 -10z"/>
<path d="M5280 4580 c-9 -6 -10 -10 -3 -10 6 0 15 5 18 10 8 12 4 12 -15 0z"/>
<path d="M399 3657 c6 -8 7 -18 3 -22 -4 -5 -1 -5 6 -1 10 6 10 11 1 22 -6 8
-14 14 -16 14 -3 0 0 -6 6 -13z"/>
<path d="M447 3276 c-3 -6 1 -19 8 -29 11 -16 13 -16 29 1 15 18 15 19 -8 30
-18 8 -25 8 -29 -2z m28 -16 c3 -5 2 -10 -4 -10 -5 0 -13 5 -16 10 -3 6 -2 10
4 10 5 0 13 -4 16 -10z"/>
<path d="M1007 2032 c-13 -14 -14 -19 -3 -19 7 0 18 9 25 19 6 10 7 18 3 18
-5 0 -16 -8 -25 -18z"/>
<path d="M1286 1291 c-4 -5 -2 -12 3 -15 5 -4 12 -2 15 3 4 5 2 12 -3 15 -5 4
-12 2 -15 -3z"/>
<path d="M1390 1201 c0 -5 7 -12 16 -15 14 -5 15 -4 4 9 -14 17 -20 19 -20 6z"/>
<path d="M5909 963 c-13 -16 -12 -17 4 -4 16 13 21 21 13 21 -2 0 -10 -8 -17
-17z"/>
<path d="M5886 932 c-3 -5 1 -9 9 -9 8 0 12 4 9 9 -3 4 -7 8 -9 8 -2 0 -6 -4
-9 -8z"/>
<path d="M5824 888 c10 -6 22 -6 26 -2 5 5 -3 10 -18 11 -22 1 -24 0 -8 -9z"/>
<path d="M1585 1001 c5 -30 20 -47 29 -33 3 5 -3 21 -14 33 l-19 24 4 -24z"/>
<path d="M1702 885 c9 -10 25 -19 35 -20 10 0 24 -4 31 -8 8 -6 10 -3 6 7 -7
17 -32 29 -45 20 -6 -3 -18 0 -27 7 -16 12 -16 12 0 -6z"/>
<path d="M1850 760 c0 -5 5 -10 11 -10 5 0 7 5 4 10 -3 6 -8 10 -11 10 -2 0
-4 -4 -4 -10z"/>
<path d="M5626 698 c3 -5 10 -6 15 -3 13 9 11 12 -6 12 -8 0 -12 -4 -9 -9z"/>
<path d="M4704 298 c-4 -7 -4 -10 1 -6 4 4 15 2 24 -5 14 -11 14 -10 2 6 -16
20 -18 21 -27 5z"/>
<path d="M4869 283 c-13 -16 -12 -17 4 -4 16 13 21 21 13 21 -2 0 -10 -8 -17
-17z"/>
<path d="M4906 288 c3 -5 10 -6 15 -3 13 9 11 12 -6 12 -8 0 -12 -4 -9 -9z"/>
<path d="M3598 6313 c-10 -20 -1 -58 12 -55 9 1 5 -5 -7 -15 l-23 -18 29 0
c16 -1 27 3 25 7 -3 4 2 8 10 8 8 0 17 4 20 9 4 5 -3 7 -15 4 -18 -5 -20 -3
-15 14 6 20 -28 63 -36 46z m32 -33 c0 -4 -6 -10 -13 -13 -8 -3 -13 3 -13 19
0 18 3 21 13 12 7 -6 13 -14 13 -18z"/>
<path d="M2410 6300 c0 -5 5 -10 11 -10 5 0 7 5 4 10 -3 6 -8 10 -11 10 -2 0
-4 -4 -4 -10z"/>
<path d="M2440 6281 c0 -6 4 -12 8 -15 5 -3 9 1 9 9 0 8 -4 15 -9 15 -4 0 -8
-4 -8 -9z"/>
<path d="M2420 6271 c0 -7 -5 -9 -12 -5 -7 5 -8 3 -3 -5 5 -9 10 -10 18 -2 6
6 8 14 4 18 -4 3 -7 1 -7 -6z"/>
<path d="M2389 6203 c-13 -17 -13 -17 6 -3 11 8 22 16 24 17 2 2 0 3 -6 3 -6
0 -17 -8 -24 -17z"/>
<path d="M3690 6200 c0 -5 5 -10 11 -10 5 0 7 5 4 10 -3 6 -8 10 -11 10 -2 0
-4 -4 -4 -10z"/>
<path d="M2067 6139 c7 -7 15 -10 18 -7 3 3 -2 9 -12 12 -14 6 -15 5 -6 -5z"/>
<path d="M1815 6129 c-4 -6 -5 -12 -2 -15 2 -3 7 2 10 11 7 17 1 20 -8 4z"/>
<path d="M2033 6133 c4 -3 -1 -12 -11 -20 -15 -13 -15 -13 6 -3 19 9 23 30 5
30 -4 0 -3 -3 0 -7z"/>
<path d="M1356 6113 c-6 -14 -5 -15 5 -6 7 7 10 15 7 18 -3 3 -9 -2 -12 -12z"/>
<path d="M1386 6122 c-3 -5 1 -9 9 -9 8 0 12 4 9 9 -3 4 -7 8 -9 8 -2 0 -6 -4
-9 -8z"/>
<path d="M1685 6120 c-3 -5 -1 -10 4 -10 6 0 11 5 11 10 0 6 -2 10 -4 10 -3 0
-8 -4 -11 -10z"/>
<path d="M1861 6114 c0 -11 3 -14 6 -6 3 7 2 16 -1 19 -3 4 -6 -2 -5 -13z"/>
<path d="M1886 6117 c3 -10 9 -15 12 -12 3 3 0 11 -7 18 -10 9 -11 8 -5 -6z"/>
<path d="M2194 6118 c-4 -7 -4 -10 1 -6 4 4 15 2 24 -5 14 -11 14 -10 2 6 -16
20 -18 21 -27 5z"/>
<path d="M3750 6125 c0 -2 10 -10 23 -16 20 -11 21 -11 8 4 -13 16 -31 23 -31
12z"/>
<path d="M1915 6110 c-3 -5 -1 -10 4 -10 6 0 11 5 11 10 0 6 -2 10 -4 10 -3 0
-8 -4 -11 -10z"/>
<path d="M2255 6111 c-3 -5 0 -13 6 -17 8 -5 9 -3 4 6 -6 10 -4 12 9 7 10 -4
15 -3 11 3 -8 13 -22 13 -30 1z"/>
<path d="M2345 6107 c10 -8 15 -19 11 -25 -3 -6 -2 -13 3 -16 5 -3 11 2 14 13
2 10 -3 23 -14 29 -26 16 -37 15 -14 -1z"/>
<path d="M2050 6100 c0 -5 -7 -10 -15 -10 -8 0 -15 -4 -15 -8 0 -16 27 -9 39
10 7 11 7 18 1 18 -5 0 -10 -4 -10 -10z"/>
<path d="M3810 6106 c0 -2 7 -7 16 -10 8 -3 12 -2 9 4 -6 10 -25 14 -25 6z"/>
<path d="M3850 6080 c0 -5 5 -10 11 -10 5 0 7 5 4 10 -3 6 -8 10 -11 10 -2 0
-4 -4 -4 -10z"/>
<path d="M1603 6073 c-15 -5 -17 -23 -4 -23 5 0 11 7 15 15 3 8 4 15 3 14 -1
0 -8 -3 -14 -6z"/>
<path d="M1306 6033 c-6 -14 -5 -15 5 -6 7 7 10 15 7 18 -3 3 -9 -2 -12 -12z"/>
<path d="M1272 6023 c1 -5 -4 -19 -11 -33 l-12 -25 20 25 c23 28 26 40 11 40
-5 0 -9 -3 -8 -7z"/>
<path d="M3910 6020 c0 -5 5 -10 11 -10 5 0 7 5 4 10 -3 6 -8 10 -11 10 -2 0
-4 -4 -4 -10z"/>
<path d="M3890 6005 c0 -8 4 -15 10 -15 5 0 7 7 4 15 -4 8 -8 15 -10 15 -2 0
-4 -7 -4 -15z"/>
<path d="M3880 5970 c7 -4 10 -12 6 -18 -3 -6 -2 -13 4 -17 6 -4 7 -12 3 -18
-4 -7 1 -6 10 2 15 12 19 12 31 -5 8 -10 18 -16 22 -11 4 4 2 7 -5 7 -7 0 -10
4 -6 9 3 5 -4 12 -15 16 -11 4 -17 11 -14 17 4 7 2 8 -4 4 -7 -4 -12 -3 -12 3
0 5 6 11 13 14 6 2 -1 4 -17 4 -17 0 -23 -3 -16 -7z"/>
<path d="M3930 5961 c0 -6 4 -13 10 -16 6 -3 7 1 4 9 -7 18 -14 21 -14 7z"/>
<path d="M3966 5918 c3 -5 10 -6 15 -3 13 9 11 12 -6 12 -8 0 -12 -4 -9 -9z"/>
<path d="M795 5881 c-3 -5 -2 -12 3 -15 5 -3 9 1 9 9 0 17 -3 19 -12 6z"/>
<path d="M1176 5882 c-3 -5 1 -9 9 -9 8 0 12 4 9 9 -3 4 -7 8 -9 8 -2 0 -6 -4
-9 -8z"/>
<path d="M3935 5880 c3 -5 8 -10 11 -10 2 0 4 5 4 10 0 6 -5 10 -11 10 -5 0
-7 -4 -4 -10z"/>
<path d="M580 5860 c-9 -6 -10 -10 -3 -10 6 0 15 5 18 10 8 12 4 12 -15 0z"/>
<path d="M677 5853 c-10 -9 -9 -33 1 -33 4 0 8 9 8 20 0 23 0 22 -9 13z"/>
<path d="M1135 5849 c-4 -6 -5 -12 -2 -15 2 -3 7 2 10 11 7 17 1 20 -8 4z"/>
<path d="M913 5835 c0 -8 4 -15 9 -15 4 0 8 4 8 9 0 6 -4 12 -8 15 -5 3 -9 -1
-9 -9z"/>
<path d="M1002 5838 c-15 -15 -15 -28 0 -28 6 0 8 3 5 7 -4 3 -2 12 4 20 14
16 7 17 -9 1z"/>
<path d="M4045 5839 c-4 -6 -14 -8 -23 -4 -9 3 -13 2 -8 -2 13 -14 54 -10 49
4 -6 16 -10 16 -18 2z"/>
<path d="M1077 5833 c-10 -9 -9 -23 1 -23 5 0 9 7 9 15 0 17 -1 18 -10 8z"/>
<path d="M1155 5830 c-3 -5 -1 -10 4 -10 6 0 11 5 11 10 0 6 -2 10 -4 10 -3 0
-8 -4 -11 -10z"/>
<path d="M475 5820 c-3 -5 -3 -10 1 -10 4 0 -1 -7 -12 -16 -18 -15 -18 -15 0
-6 11 5 21 17 22 26 3 18 -2 21 -11 6z"/>
<path d="M1213 5805 c0 -8 4 -12 9 -9 5 3 6 10 3 15 -9 13 -12 11 -12 -6z"/>
<path d="M395 5800 c3 -5 8 -10 11 -10 2 0 4 5 4 10 0 6 -5 10 -11 10 -5 0 -7
-4 -4 -10z"/>
<path d="M930 5800 c0 -5 5 -10 10 -10 6 0 10 5 10 10 0 6 -4 10 -10 10 -5 0
-10 -4 -10 -10z"/>
<path d="M1023 5796 c5 -13 2 -19 -13 -23 -11 -3 -17 -10 -14 -15 3 -5 14 -2
25 8 18 16 20 16 38 0 14 -13 21 -14 27 -5 4 7 3 10 -3 6 -5 -3 -22 6 -38 21
-21 19 -27 21 -22 8z"/>
<path d="M4027 5779 c7 -7 15 -10 18 -7 3 3 -2 9 -12 12 -14 6 -15 5 -6 -5z"/>
<path d="M646 5768 c3 -5 10 -6 15 -3 13 9 11 12 -6 12 -8 0 -12 -4 -9 -9z"/>
<path d="M4210 5739 c0 -5 5 -7 10 -4 6 3 10 8 10 11 0 2 -4 4 -10 4 -5 0 -10
-5 -10 -11z"/>
<path d="M374 5698 c-4 -7 -3 -8 4 -4 7 4 12 2 12 -3 0 -6 5 -11 10 -11 15 0
12 17 -5 23 -8 4 -17 1 -21 -5z"/>
<path d="M4216 5695 c-3 -9 -6 -22 -5 -28 0 -7 5 -1 10 12 5 13 8 26 5 28 -2
2 -6 -3 -10 -12z"/>
<path d="M355 5660 c-3 -5 -1 -10 4 -10 6 0 11 5 11 10 0 6 -2 10 -4 10 -3 0
-8 -4 -11 -10z"/>
<path d="M355 5630 c-3 -6 1 -7 9 -4 18 7 21 14 7 14 -6 0 -13 -4 -16 -10z"/>
<path d="M4225 5622 c-11 -8 -13 -37 -3 -47 4 -4 4 -13 2 -20 -4 -9 1 -12 13
-11 10 2 24 -5 30 -15 13 -18 36 -20 50 -4 4 4 2 5 -4 1 -8 -4 -17 2 -24 16
-6 13 -20 30 -31 37 -11 7 -17 8 -13 2 3 -6 1 -11 -4 -11 -6 0 -11 12 -11 26
0 14 4 23 10 19 6 -3 10 -1 10 4 0 13 -11 14 -25 3z m55 -85 c11 -22 11 -22
-5 -2 -9 11 -21 19 -26 17 -6 -1 -8 2 -4 8 8 13 22 4 35 -23z"/>
<path d="M276 5593 c-6 -14 -5 -15 5 -6 7 7 10 15 7 18 -3 3 -9 -2 -12 -12z"/>
<path d="M4260 5602 c0 -5 7 -9 15 -9 8 0 12 4 9 9 -3 4 -9 8 -15 8 -5 0 -9
-4 -9 -8z"/>
<path d="M373 5569 c1 -14 4 -15 14 -7 17 14 16 25 -1 25 -8 0 -14 -8 -13 -18z"/>
<path d="M4297 5559 c4 -13 8 -18 11 -10 2 7 -1 18 -6 23 -8 8 -9 4 -5 -13z"/>
<path d="M156 5553 c-6 -14 -5 -15 5 -6 7 7 10 15 7 18 -3 3 -9 -2 -12 -12z"/>
<path d="M225 5540 c-3 -6 1 -7 9 -4 18 7 21 14 7 14 -6 0 -13 -4 -16 -10z"/>
<path d="M270 5540 c0 -5 5 -10 10 -10 6 0 10 5 10 10 0 6 -4 10 -10 10 -5 0
-10 -4 -10 -10z"/>
<path d="M305 5501 c-6 -11 9 -23 19 -14 9 9 7 23 -3 23 -6 0 -12 -4 -16 -9z"/>
<path d="M4416 5498 c3 -5 10 -6 15 -3 13 9 11 12 -6 12 -8 0 -12 -4 -9 -9z"/>
<path d="M4490 5460 c0 -5 5 -10 11 -10 5 0 7 5 4 10 -3 6 -8 10 -11 10 -2 0
-4 -4 -4 -10z"/>
<path d="M4508 5383 c7 -3 16 -2 19 1 4 3 -2 6 -13 5 -11 0 -14 -3 -6 -6z"/>
<path d="M4530 5356 c0 -8 4 -17 9 -20 5 -4 7 3 4 14 -6 23 -13 26 -13 6z"/>
<path d="M4571 5293 c-1 -17 16 -25 25 -12 4 7 3 9 -4 5 -5 -3 -13 0 -15 6 -4
9 -6 10 -6 1z"/>
<path d="M4686 5242 c-3 -5 1 -9 9 -9 8 0 12 4 9 9 -3 4 -7 8 -9 8 -2 0 -6 -4
-9 -8z"/>
<path d="M4776 5142 c-3 -5 1 -9 9 -9 8 0 12 4 9 9 -3 4 -7 8 -9 8 -2 0 -6 -4
-9 -8z"/>
<path d="M4788 5113 c7 -3 16 -2 19 1 4 3 -2 6 -13 5 -11 0 -14 -3 -6 -6z"/>
<path d="M4801 5027 c-8 -8 -6 -16 7 -30 9 -10 17 -26 17 -35 0 -12 7 -16 23
-15 16 2 21 -1 16 -10 -4 -6 -3 -9 1 -4 5 4 16 0 25 -8 15 -14 19 -14 41 4 13
11 19 20 12 21 -6 0 -13 -6 -16 -12 -2 -7 -8 -10 -12 -6 -4 4 -2 14 5 23 16
19 3 20 -17 0 -8 -8 -19 -13 -24 -9 -5 3 1 14 13 24 13 11 17 19 11 20 -7 0
-13 -4 -13 -10 0 -16 -26 -12 -41 6 -12 15 -11 16 11 9 14 -4 22 -4 17 0 -6 8
-26 12 -65 14 -7 1 -11 5 -8 10 3 5 15 7 26 4 11 -3 20 -3 20 0 0 11 -39 14
-49 4z m55 -64 c-7 -7 -21 -4 -21 5 0 4 -4 14 -9 22 -6 9 -1 7 12 -4 12 -11
20 -21 18 -23z"/>
<path d="M4929 5003 c-13 -16 -12 -17 4 -4 16 13 21 21 13 21 -2 0 -10 -8 -17
-17z"/>
<path d="M5115 4889 c-4 -6 -5 -12 -2 -15 2 -3 7 2 10 11 7 17 1 20 -8 4z"/>
<path d="M5236 4687 c3 -10 9 -15 12 -12 3 3 0 11 -7 18 -10 9 -11 8 -5 -6z"/>
<path d="M5200 4680 c-8 -5 -12 -12 -9 -15 4 -3 12 1 19 10 14 17 11 19 -10 5z"/>
<path d="M5295 4650 c-4 -6 -11 -8 -16 -5 -5 3 -6 -1 -3 -10 4 -9 7 -15 8 -13
1 2 8 11 15 21 7 9 11 17 8 17 -3 0 -9 -5 -12 -10z"/>
<path d="M5315 4631 c-6 -11 13 -26 22 -17 4 3 1 6 -6 6 -7 0 -9 5 -6 10 3 6
4 10 1 10 -3 0 -7 -4 -11 -9z"/>
<path d="M5393 4551 c0 -11 5 -18 9 -15 4 3 5 11 1 19 -7 21 -12 19 -10 -4z"/>
<path d="M5430 4441 c0 -11 4 -22 9 -25 4 -3 6 6 3 19 -5 30 -12 33 -12 6z"/>
<path d="M5496 4422 c-2 -4 -1 -14 4 -22 7 -11 9 -9 7 8 -1 24 -3 26 -11 14z"/>
<path d="M5448 4395 c-16 -22 -16 -24 5 -41 12 -11 17 -13 11 -4 -9 13 -10 21
-5 48 1 4 5 0 11 -8 5 -8 11 -12 14 -10 2 3 -1 12 -7 21 -11 15 -14 14 -29 -6z"/>
<path d="M5690 4400 c0 -5 5 -10 11 -10 5 0 7 5 4 10 -3 6 -8 10 -11 10 -2 0
-4 -4 -4 -10z"/>
<path d="M5796 4394 c-8 -20 -8 -24 2 -24 4 0 8 9 9 20 2 24 -3 26 -11 4z"/>
<path d="M5743 4376 c12 -9 14 -16 7 -21 -5 -3 -8 -11 -4 -16 3 -5 9 -7 14 -4
4 3 13 -2 20 -10 10 -12 16 -13 26 -4 11 9 14 9 14 0 0 -7 10 -3 22 9 12 11
18 23 15 27 -4 3 -7 1 -7 -5 0 -7 -5 -12 -11 -12 -6 0 -9 7 -5 15 3 8 1 15 -4
15 -5 0 -12 -9 -15 -20 -4 -11 -11 -18 -16 -14 -5 3 -6 10 -3 16 4 7 2 8 -4 4
-7 -4 -12 -3 -12 2 0 5 -12 14 -27 21 -25 10 -26 10 -10 -3z m43 -38 c19 -23
19 -23 -2 -5 -11 9 -24 14 -29 10 -4 -5 -5 -2 -1 5 9 16 10 16 32 -10z"/>
<path d="M5830 4386 c0 -2 7 -7 16 -10 8 -3 12 -2 9 4 -6 10 -25 14 -25 6z"/>
<path d="M5490 4320 c0 -13 11 -13 30 0 12 8 11 10 -7 10 -13 0 -23 -4 -23
-10z"/>
<path d="M5857 4283 c-4 -3 -7 -11 -7 -17 0 -6 5 -5 12 2 6 6 9 14 7 17 -3 3
-9 2 -12 -2z"/>
<path d="M5930 4285 c0 -2 10 -10 23 -16 20 -11 21 -11 8 4 -13 16 -31 23 -31
12z"/>
<path d="M5939 4229 c-8 -5 -10 -9 -5 -9 5 0 3 -7 -4 -15 -11 -14 -7 -19 13
-16 4 0 7 -3 7 -8 0 -11 26 -8 37 4 4 4 2 5 -4 1 -7 -4 -13 -3 -13 3 0 5 6 12
13 15 6 3 3 4 -7 3 -10 -1 -21 4 -23 11 -3 7 1 10 11 6 9 -3 16 -4 16 -1 0 10
-27 15 -41 6z m15 -27 c3 -5 -1 -9 -9 -9 -8 0 -12 4 -9 9 3 4 7 8 9 8 2 0 6
-4 9 -8z"/>
<path d="M6055 4141 c-3 -5 -2 -12 3 -15 5 -3 9 1 9 9 0 17 -3 19 -12 6z"/>
<path d="M6031 4114 c0 -11 3 -14 6 -6 3 7 2 16 -1 19 -3 4 -6 -2 -5 -13z"/>
<path d="M6180 4080 c-9 -6 -10 -10 -3 -10 6 0 15 5 18 10 8 12 4 12 -15 0z"/>
<path d="M211 3782 c-9 -7 -11 -11 -6 -9 6 3 19 -1 30 -9 13 -10 15 -14 4 -14
-8 -1 -5 -6 9 -13 12 -7 20 -16 17 -20 -3 -4 -2 -5 2 -2 3 3 11 -3 18 -12 9
-13 14 -13 20 -3 5 9 4 11 -3 6 -7 -4 -12 -1 -12 8 0 20 4 20 40 1 21 -11 31
-12 36 -3 4 6 3 8 -3 5 -6 -4 -13 0 -17 8 -3 8 -1 17 4 20 5 3 7 12 3 21 -4
10 -9 12 -18 4 -21 -17 -53 -20 -65 -5 -7 8 -9 19 -6 24 9 14 -33 9 -53 -7z
m54 -22 c10 -11 23 -17 29 -13 8 4 8 3 0 -6 -12 -13 -47 -4 -39 9 3 5 -3 13
-12 19 -10 6 -13 11 -7 11 6 0 19 -9 29 -20z m68 -24 c4 -10 1 -13 -9 -9 -15
6 -19 23 -5 23 5 0 11 -7 14 -14z"/>
<path d="M220 3726 c0 -2 7 -9 15 -16 13 -11 14 -10 9 4 -5 14 -24 23 -24 12z"/>
<path d="M315 3690 c-3 -6 1 -7 9 -4 18 7 21 14 7 14 -6 0 -13 -4 -16 -10z"/>
<path d="M333 3625 c0 -8 4 -12 9 -9 5 3 6 10 3 15 -9 13 -12 11 -12 -6z"/>
<path d="M420 3519 c0 -5 5 -7 10 -4 6 3 10 8 10 11 0 2 -4 4 -10 4 -5 0 -10
-5 -10 -11z"/>
<path d="M373 3475 c0 -8 4 -12 9 -9 5 3 6 10 3 15 -9 13 -12 11 -12 -6z"/>
<path d="M346 3218 c3 -5 10 -6 15 -3 13 9 11 12 -6 12 -8 0 -12 -4 -9 -9z"/>
<path d="M430 3205 c0 -8 4 -15 10 -15 5 0 7 7 4 15 -4 8 -8 15 -10 15 -2 0
-4 -7 -4 -15z"/>
<path d="M476 3201 c-19 -7 -19 -8 0 -13 13 -3 21 0 21 8 0 8 -1 14 -1 13 -1
0 -10 -4 -20 -8z"/>
<path d="M547 3176 c-4 -10 -1 -13 8 -9 8 3 12 9 9 14 -7 12 -11 11 -17 -5z"/>
<path d="M496 3167 c-14 -10 -15 -14 -4 -14 7 0 19 6 26 14 7 7 9 13 4 13 -4
0 -16 -6 -26 -13z"/>
<path d="M613 3137 c2 -7 -3 -18 -12 -25 -14 -11 -13 -11 7 -2 12 6 22 15 22
21 0 6 5 7 10 4 8 -5 7 -11 -1 -21 -16 -19 -4 -30 16 -14 8 7 15 9 15 4 -1
-13 -26 -45 -31 -39 -3 2 -5 -5 -6 -15 -1 -11 3 -20 8 -20 6 0 8 4 4 9 -10 17
12 21 25 6 10 -12 16 -13 26 -4 11 9 11 15 3 25 -6 7 -8 17 -5 22 6 9 -50 55
-72 58 -7 2 -11 -3 -9 -9z m72 -47 c-4 -6 -2 -17 5 -25 6 -8 7 -16 2 -19 -6
-3 -15 1 -22 9 -10 12 -10 18 0 30 14 17 24 20 15 5z"/>
<path d="M665 2829 c-4 -6 -5 -12 -2 -15 2 -3 7 2 10 11 7 17 1 20 -8 4z"/>
<path d="M635 2820 c-3 -5 -1 -10 4 -10 6 0 11 5 11 10 0 6 -2 10 -4 10 -3 0
-8 -4 -11 -10z"/>
<path d="M635 2780 c3 -5 8 -10 11 -10 2 0 4 5 4 10 0 6 -5 10 -11 10 -5 0 -7
-4 -4 -10z"/>
<path d="M656 2711 c-4 -5 3 -7 14 -4 23 6 26 13 6 13 -8 0 -17 -4 -20 -9z"/>
<path d="M736 2582 c-3 -5 1 -9 9 -9 8 0 12 4 9 9 -3 4 -7 8 -9 8 -2 0 -6 -4
-9 -8z"/>
<path d="M813 2563 c9 -8 47 -11 47 -4 0 5 -11 9 -25 9 -14 0 -24 -2 -22 -5z"/>
<path d="M893 2525 c0 -7 6 -11 14 -8 7 3 13 6 13 8 0 2 -6 5 -13 8 -8 3 -14
-1 -14 -8z"/>
<path d="M915 2500 c3 -5 8 -10 11 -10 2 0 4 5 4 10 0 6 -5 10 -11 10 -5 0 -7
-4 -4 -10z"/>
<path d="M957 2483 c-4 -3 -7 -11 -7 -17 0 -6 5 -5 12 2 6 6 9 14 7 17 -3 3
-9 2 -12 -2z"/>
<path d="M977 2425 c22 -16 22 -51 -1 -38 -6 4 -5 -1 3 -10 8 -10 9 -17 3 -17
-6 0 -16 8 -21 18 -6 9 -11 11 -11 5 0 -17 46 -46 60 -38 16 10 12 25 -7 25
-17 1 -17 1 0 11 12 7 15 14 8 22 -5 7 -9 16 -8 21 1 5 -9 11 -23 13 l-25 4
22 -16z"/>
<path d="M935 2340 c3 -5 8 -10 11 -10 2 0 4 5 4 10 0 6 -5 10 -11 10 -5 0 -7
-4 -4 -10z"/>
<path d="M956 2217 c3 -10 9 -15 12 -12 3 3 0 11 -7 18 -10 9 -11 8 -5 -6z"/>
<path d="M955 2070 c-3 -5 -1 -10 4 -10 6 0 11 5 11 10 0 6 -2 10 -4 10 -3 0
-8 -4 -11 -10z"/>
<path d="M940 1966 c0 -2 7 -9 15 -16 9 -7 15 -8 15 -2 0 5 -7 12 -15 16 -8 3
-15 4 -15 2z"/>
<path d="M1003 1808 c-2 -16 1 -18 10 -9 7 7 8 14 1 21 -6 6 -10 2 -11 -12z"/>
<path d="M995 1761 c6 -10 -11 -24 -33 -27 -8 -2 -17 -6 -20 -10 -4 -4 1 -4
10 -1 10 3 20 2 23 -3 4 -6 0 -10 -7 -10 -9 -1 -7 -5 4 -14 10 -7 15 -16 11
-19 -3 -4 -11 -2 -18 3 -8 7 -12 5 -12 -5 0 -8 4 -12 8 -9 4 2 10 0 14 -6 3
-5 1 -10 -5 -10 -6 0 -8 -5 -5 -11 4 -6 13 -8 21 -5 7 3 16 0 20 -6 4 -6 3 -8
-4 -4 -6 3 -14 2 -17 -4 -5 -8 -11 -7 -21 1 -9 7 -14 8 -14 1 0 -6 6 -12 13
-15 9 -3 9 -8 -3 -23 -11 -15 -11 -16 0 -6 19 17 35 15 21 -2 -9 -11 -10 -20
-1 -35 10 -19 23 -25 57 -24 6 0 9 -6 6 -13 -4 -10 -10 -11 -23 -4 -10 6 -25
10 -32 10 -7 -1 1 -7 17 -14 21 -9 34 -10 43 -3 9 7 17 6 25 -3 7 -7 7 -10 2
-7 -6 3 -19 -1 -30 -9 -10 -8 -15 -14 -9 -14 5 0 2 -5 -6 -10 -9 -6 -10 -10
-3 -10 7 0 17 9 23 20 6 11 16 17 25 14 8 -4 12 -11 8 -18 -3 -6 -2 -8 2 -3
12 10 14 47 2 47 -5 0 -20 9 -33 19 -14 11 -33 17 -44 14 -11 -3 -20 0 -20 6
0 6 3 10 8 9 4 -2 8 0 10 5 5 16 1 19 -13 7 -18 -15 -20 1 -3 18 7 7 8 12 3
12 -4 0 0 9 9 19 20 22 12 46 -11 36 -12 -4 -13 -2 -6 7 8 11 10 33 3 41 -10
13 -4 39 11 48 19 10 18 29 -2 29 -6 0 -8 -4 -4 -9z"/>
<path d="M933 1651 c0 -11 5 -18 9 -15 4 3 5 11 1 19 -7 21 -12 19 -10 -4z"/>
<path d="M6031 1451 c-10 -7 -10 -10 -1 -16 6 -4 16 -3 22 3 13 13 -4 23 -21
13z"/>
<path d="M1155 1425 c-11 -12 -23 -21 -27 -18 -14 8 -8 -4 8 -17 8 -8 14 -9
13 -4 -3 19 1 34 11 34 6 0 10 -10 11 -22 1 -22 1 -22 8 2 5 17 9 21 15 12 4
-6 4 -17 0 -24 -4 -7 -3 -8 4 -4 7 4 12 3 12 -3 0 -5 -5 -12 -10 -14 -6 -3 -5
-4 2 -3 20 4 19 21 -5 53 l-23 31 -19 -23z"/>
<path d="M6175 1420 c6 -10 4 -12 -11 -6 -15 6 -17 5 -6 -5 9 -9 15 -10 23 -2
8 8 7 13 -2 18 -8 6 -10 4 -4 -5z"/>
<path d="M6134 1396 c1 -8 5 -18 8 -22 4 -3 5 1 4 10 -1 8 -5 18 -8 22 -4 3
-5 -1 -4 -10z"/>
<path d="M1095 1380 c-3 -5 -1 -10 4 -10 6 0 11 5 11 10 0 6 -2 10 -4 10 -3 0
-8 -4 -11 -10z"/>
<path d="M6165 1380 c-3 -6 1 -7 9 -4 18 7 21 14 7 14 -6 0 -13 -4 -16 -10z"/>
<path d="M1250 1376 c0 -2 8 -10 18 -17 15 -13 16 -12 3 4 -13 16 -21 21 -21
13z"/>
<path d="M6035 1369 c-4 -6 -5 -12 -2 -15 2 -3 7 2 10 11 7 17 1 20 -8 4z"/>
<path d="M1255 1244 c2 -32 10 -39 13 -9 1 13 -2 26 -6 29 -4 2 -7 -6 -7 -20z"/>
<path d="M1290 1185 c0 -5 5 -17 10 -25 5 -8 10 -10 10 -5 0 6 -5 17 -10 25
-5 8 -10 11 -10 5z"/>
<path d="M1350 1146 c0 -2 7 -7 16 -10 8 -3 12 -2 9 4 -6 10 -25 14 -25 6z"/>
<path d="M1476 1122 c-4 -7 -2 -12 4 -12 6 0 8 -5 4 -12 -6 -10 -5 -10 8 -1 8
7 19 9 23 5 5 -4 5 -1 1 6 -4 7 -11 10 -16 7 -4 -3 -10 0 -12 7 -3 9 -6 9 -12
0z"/>
<path d="M1449 1083 c-13 -16 -12 -17 4 -4 16 13 21 21 13 21 -2 0 -10 -8 -17
-17z"/>
<path d="M5993 1025 c0 -8 4 -15 9 -15 4 0 8 4 8 9 0 6 -4 12 -8 15 -5 3 -9
-1 -9 -9z"/>
<path d="M1506 1022 c-3 -5 1 -9 9 -9 8 0 12 4 9 9 -3 4 -7 8 -9 8 -2 0 -6 -4
-9 -8z"/>
<path d="M5993 985 c0 -8 4 -12 9 -9 5 3 6 10 3 15 -9 13 -12 11 -12 -6z"/>
<path d="M5960 895 c-7 -8 -16 -13 -20 -10 -5 3 -11 1 -14 -4 -4 -5 0 -8 7 -7
17 2 64 36 50 36 -6 0 -16 -7 -23 -15z"/>
<path d="M5751 859 c-13 -11 -21 -22 -17 -26 3 -3 6 -3 6 1 0 5 11 1 25 -8 14
-9 25 -12 25 -6 0 5 -4 10 -10 10 -12 0 -9 22 4 31 4 4 4 9 0 12 -5 3 -20 -4
-33 -14z"/>
<path d="M1675 850 c-3 -5 -1 -10 4 -10 6 0 11 5 11 10 0 6 -2 10 -4 10 -3 0
-8 -4 -11 -10z"/>
<path d="M5734 782 c3 -5 0 -13 -6 -15 -9 -4 -10 -6 -1 -6 17 -1 25 16 12 25
-7 4 -9 3 -5 -4z"/>
<path d="M5756 762 c-3 -5 1 -9 9 -9 8 0 12 4 9 9 -3 4 -7 8 -9 8 -2 0 -6 -4
-9 -8z"/>
<path d="M5690 745 c-7 -9 -8 -15 -2 -15 5 0 12 7 16 15 3 8 4 15 2 15 -2 0
-9 -7 -16 -15z"/>
<path d="M5715 741 c-3 -5 -2 -12 3 -15 5 -3 9 1 9 9 0 17 -3 19 -12 6z"/>
<path d="M5696 702 c-3 -4 4 -9 15 -9 23 -2 25 3 4 10 -8 4 -16 3 -19 -1z"/>
<path d="M1852 685 c2 -11 -2 -19 -8 -18 -6 1 -11 -4 -11 -12 0 -10 4 -11 19
-2 21 14 21 17 7 37 -8 12 -9 11 -7 -5z"/>
<path d="M5671 653 c-1 -17 16 -25 25 -12 4 7 3 9 -4 5 -5 -3 -13 0 -15 6 -4
9 -6 10 -6 1z"/>
<path d="M5651 634 c0 -11 3 -14 6 -6 3 7 2 16 -1 19 -3 4 -6 -2 -5 -13z"/>
<path d="M1992 594 c-1 -15 2 -23 8 -19 6 4 7 11 4 17 -4 6 1 6 14 -1 27 -14
35 -28 17 -28 -8 0 -11 5 -8 10 3 6 1 7 -5 3 -17 -10 -15 -19 9 -34 15 -10 19
-10 14 -1 -5 7 -3 10 6 7 8 -3 13 -12 11 -21 -1 -8 2 -18 8 -22 8 -5 7 -12 -2
-23 -7 -10 -1 -7 13 6 14 12 31 22 37 22 7 0 12 5 12 11 0 5 -4 7 -10 4 -14
-9 -49 18 -74 57 -26 41 -51 47 -54 12z m99 -77 c-1 -12 -15 -9 -19 4 -3 6 1
10 8 8 6 -3 11 -8 11 -12z"/>
<path d="M5613 605 c0 -8 4 -12 9 -9 4 3 8 9 8 15 0 5 -4 9 -8 9 -5 0 -9 -7
-9 -15z"/>
<path d="M1890 599 c0 -5 4 -8 9 -4 6 3 14 -3 20 -12 6 -10 11 -13 11 -7 0 12
-20 34 -32 34 -4 0 -8 -5 -8 -11z"/>
<path d="M5231 590 c-12 -11 -28 -17 -33 -14 -6 4 -2 -5 7 -20 14 -21 21 -24
31 -15 8 6 11 15 9 20 -10 14 40 5 53 -11 8 -8 5 0 -5 19 -23 42 -32 46 -62
21z m44 1 c3 -5 0 -13 -6 -17 -8 -4 -9 -3 -5 4 4 7 3 12 -3 12 -10 0 -24 -18
-27 -32 -1 -5 -2 -11 -3 -15 -1 -5 -5 -2 -10 6 -6 10 -3 20 12 32 25 21 33 23
42 10z"/>
<path d="M5450 604 c0 -6 -13 -17 -30 -24 -16 -7 -30 -17 -30 -23 0 -7 4 -7
12 1 21 21 32 13 13 -8 -17 -18 -17 -20 -2 -14 9 3 17 10 17 16 0 5 5 6 10 3
6 -4 9 -1 8 6 -2 6 3 14 10 16 8 3 10 -1 6 -11 -4 -11 0 -16 12 -16 16 0 17 2
4 10 -11 8 -8 10 15 7 18 -3 37 2 48 11 16 15 18 14 24 -6 3 -12 9 -22 15 -22
5 0 3 10 -3 23 -7 12 -12 23 -11 25 8 10 -1 12 -13 2 -12 -10 -15 -10 -15 1 0
11 -2 11 -10 -1 -7 -11 -10 -12 -10 -2 0 10 -4 10 -16 -2 -20 -21 -31 -20 -43
2 -6 9 -11 12 -11 6z m85 -23 c-9 -8 -36 -10 -30 -2 2 4 11 8 20 8 8 0 13 -3
10 -6z"/>
<path d="M5634 588 l-19 -23 23 19 c12 11 22 21 22 23 0 8 -8 2 -26 -19z"/>
<path d="M5590 580 c0 -5 5 -10 11 -10 5 0 7 5 4 10 -3 6 -8 10 -11 10 -2 0
-4 -4 -4 -10z"/>
<path d="M2070 566 c0 -9 5 -16 10 -16 6 0 10 4 10 9 0 6 -4 13 -10 16 -5 3
-10 -1 -10 -9z"/>
<path d="M1890 559 c0 -5 5 -7 10 -4 6 3 10 8 10 11 0 2 -4 4 -10 4 -5 0 -10
-5 -10 -11z"/>
<path d="M5149 558 c-1 -7 -1 -17 0 -22 1 -5 -5 -6 -13 -3 -16 6 -40 -16 -29
-26 6 -6 -4 -9 -23 -6 -13 2 -21 -23 -19 -57 2 -27 0 -34 -12 -30 -8 3 -12 2
-8 -3 3 -5 -1 -12 -7 -14 -10 -4 -10 -6 0 -6 9 -1 9 -7 -3 -25 -11 -16 -13
-26 -5 -31 6 -3 8 -11 5 -16 -4 -5 -1 -9 4 -9 14 0 14 13 -1 28 -7 7 -8 12 -2
12 6 0 15 -5 22 -12 9 -9 12 -9 12 0 0 7 -4 12 -8 12 -5 0 -9 7 -9 15 0 10 6
13 19 9 10 -3 18 0 18 6 0 6 -4 8 -10 5 -5 -3 -10 1 -10 10 0 12 6 15 23 10
l22 -6 -23 14 c-12 7 -20 16 -16 20 4 4 13 2 20 -3 16 -14 56 -22 49 -9 -4 5
-10 7 -14 5 -4 -3 -20 4 -37 15 -16 10 -23 19 -16 19 7 0 10 6 7 13 -4 6 0 4
8 -5 8 -10 20 -18 28 -18 10 1 9 4 -3 11 -10 5 -18 14 -18 19 0 16 24 6 37
-15 10 -18 11 -18 10 7 -1 14 -5 24 -9 22 -4 -2 -9 0 -12 5 -3 5 1 11 9 15 8
3 19 -3 24 -12 6 -9 11 -12 11 -6 0 5 -6 16 -12 23 -11 11 -10 13 5 8 14 -5
16 -3 8 12 -6 10 -7 21 -4 25 3 3 1 6 -5 6 -7 0 -13 -6 -13 -12z"/>
<path d="M5495 541 c-3 -5 0 -13 6 -17 7 -4 9 -3 5 4 -3 5 0 13 6 15 9 4 10 6
1 6 -6 1 -14 -3 -18 -8z"/>
<path d="M5451 524 c0 -11 3 -14 6 -6 3 7 2 16 -1 19 -3 4 -6 -2 -5 -13z"/>
<path d="M5555 529 c-4 -6 -5 -12 -2 -15 2 -3 7 2 10 11 7 17 1 20 -8 4z"/>
<path d="M2016 522 c-2 -4 -1 -14 4 -22 7 -11 9 -9 7 8 -1 24 -3 26 -11 14z"/>
<path d="M5255 520 c3 -5 8 -10 11 -10 2 0 4 5 4 10 0 6 -5 10 -11 10 -5 0 -7
-4 -4 -10z"/>
<path d="M5586 518 c3 -5 10 -6 15 -3 13 9 11 12 -6 12 -8 0 -12 -4 -9 -9z"/>
<path d="M5390 506 c0 -2 7 -7 16 -10 8 -3 12 -2 9 4 -6 10 -25 14 -25 6z"/>
<path d="M2108 489 c-10 -6 -18 -15 -18 -20 0 -6 7 -3 16 6 9 9 19 13 23 9 3
-4 0 -9 -6 -11 -7 -3 -13 -9 -13 -15 0 -7 5 -6 14 1 10 8 16 9 21 1 3 -5 2
-10 -3 -10 -5 0 -14 -11 -20 -25 -17 -37 -14 -45 4 -13 9 17 20 25 29 22 21
-8 18 6 -8 38 -17 21 -26 25 -39 17z"/>
<path d="M2147 404 c3 -8 9 -14 15 -14 5 0 6 -6 2 -12 -6 -10 -4 -10 8 0 11 9
18 10 23 2 3 -5 0 -10 -7 -10 -9 -1 -7 -5 4 -14 10 -7 14 -17 10 -21 -4 -5 -1
-5 6 -1 7 4 9 12 6 18 -4 7 -2 8 5 4 6 -4 11 -13 10 -19 -3 -23 1 -40 7 -34
10 9 37 -22 31 -36 -3 -7 3 -13 13 -13 16 0 17 3 4 20 -10 15 -11 23 -2 33 6
8 7 13 2 11 -6 -2 -33 19 -61 46 -51 49 -87 68 -76 40z m114 -91 c13 -17 13
-17 -6 -3 -11 8 -22 16 -24 17 -2 2 0 3 6 3 6 0 17 -8 24 -17z"/>
<path d="M2137 370 c3 -11 9 -20 15 -20 5 0 4 9 -2 20 -6 11 -12 20 -14 20 -2
0 -2 -9 1 -20z"/>
<path d="M5100 366 c0 -2 8 -10 18 -17 15 -13 16 -12 3 4 -13 16 -21 21 -21
13z"/>
<path d="M2160 338 c-12 -8 -12 -9 2 -5 9 3 19 1 22 -6 3 -9 5 -9 5 0 1 18
-13 23 -29 11z"/>
<path d="M4545 321 c-3 -6 -11 -8 -18 -5 -19 7 -67 -34 -60 -51 3 -8 9 -15 15
-15 5 0 6 5 3 10 -3 6 -3 10 2 11 4 0 16 2 26 4 12 2 17 -1 14 -9 -3 -7 1 -13
9 -13 9 0 12 8 10 24 -3 12 0 26 6 29 6 4 8 3 5 -3 -9 -14 21 -53 41 -52 15 1
15 2 -1 6 -9 2 -15 9 -11 14 3 5 -4 21 -15 34 -10 14 -22 21 -26 16z m-12 -25
c4 -11 0 -13 -15 -11 -12 3 -27 1 -33 -3 -6 -4 -2 1 8 11 23 21 33 22 40 3z
m45 -21 c-3 -3 -9 2 -12 12 -6 14 -5 15 5 6 7 -7 10 -15 7 -18z"/>
<path d="M2190 305 c-11 -13 -10 -14 4 -9 9 3 16 10 16 15 0 13 -6 11 -20 -6z"/>
<path d="M5060 300 c-9 -6 -10 -10 -3 -10 6 0 15 5 18 10 8 12 4 12 -15 0z"/>
<path d="M5090 301 c0 -6 4 -13 10 -16 6 -3 7 1 4 9 -7 18 -14 21 -14 7z"/>
<path d="M4033 274 c-14 -15 -28 -22 -35 -18 -8 5 -6 9 7 14 11 4 14 9 8 13
-6 4 -16 0 -22 -7 -8 -10 -9 -16 -1 -21 6 -3 8 -10 6 -14 -3 -4 0 -13 5 -21 8
-12 9 -11 7 4 -2 10 3 21 11 24 8 3 11 0 7 -7 -5 -7 -1 -9 9 -4 13 5 14 7 3
14 -8 5 -9 9 -2 9 7 0 14 9 17 20 6 25 7 25 -20 -6z"/>
<path d="M2230 281 c0 -5 5 -13 10 -16 6 -3 10 -2 10 4 0 5 -4 13 -10 16 -5 3
-10 2 -10 -4z"/>
<path d="M4150 260 c0 -5 5 -10 10 -10 6 0 10 5 10 10 0 6 -4 10 -10 10 -5 0
-10 -4 -10 -10z"/>
<path d="M4500 253 c0 -6 8 -17 18 -24 16 -13 16 -13 2 6 -8 11 -16 22 -17 24
-2 2 -3 0 -3 -6z"/>
<path d="M4617 245 c-4 -8 -3 -16 1 -19 4 -3 9 4 9 15 2 23 -3 25 -10 4z"/>
<path d="M4970 256 c0 -2 8 -10 18 -17 15 -13 16 -12 3 4 -13 16 -21 21 -21
13z"/>
<path d="M3935 240 c-2 -3 7 -7 21 -8 13 -1 24 2 24 6 0 9 -40 11 -45 2z"/>
<path d="M4185 240 c-3 -6 1 -7 9 -4 18 7 21 14 7 14 -6 0 -13 -4 -16 -10z"/>
<path d="M4386 242 c-3 -5 1 -9 9 -9 8 0 12 4 9 9 -3 4 -7 8 -9 8 -2 0 -6 -4
-9 -8z"/>
<path d="M4556 242 c-3 -5 1 -9 9 -9 8 0 12 4 9 9 -3 4 -7 8 -9 8 -2 0 -6 -4
-9 -8z"/>
<path d="M4656 234 c-5 -13 -4 -14 7 -6 8 7 17 9 20 5 4 -3 7 -1 7 5 0 18 -27
14 -34 -4z"/>
<path d="M4753 235 c0 -8 4 -12 9 -9 4 3 8 9 8 15 0 5 -4 9 -8 9 -5 0 -9 -7
-9 -15z"/>
<path d="M4833 235 c0 -8 4 -12 9 -9 4 3 8 9 8 15 0 5 -4 9 -8 9 -5 0 -9 -7
-9 -15z"/>
<path d="M4883 243 c-7 -2 -13 -9 -13 -15 0 -7 5 -7 13 1 8 6 17 8 20 4 4 -3
7 -1 7 5 0 13 -7 14 -27 5z"/>
<path d="M4920 246 c0 -2 7 -7 16 -10 8 -3 12 -2 9 4 -6 10 -25 14 -25 6z"/>
<path d="M2357 213 c-10 -9 -9 -23 1 -23 5 0 9 7 9 15 0 17 -1 18 -10 8z"/>
<path d="M2316 198 c3 -5 10 -6 15 -3 13 9 11 12 -6 12 -8 0 -12 -4 -9 -9z"/>
<path d="M3950 180 c-12 -7 -10 -9 7 -7 12 0 19 5 17 9 -6 10 -6 10 -24 -2z"/>
<path d="M3877 166 c-3 -8 0 -17 8 -19 7 -3 12 0 11 8 -3 22 -13 27 -19 11z"/>
<path d="M3996 167 c3 -10 9 -15 12 -12 3 3 0 11 -7 18 -10 9 -11 8 -5 -6z"/>
<path d="M2375 140 c3 -5 8 -10 11 -10 2 0 4 5 4 10 0 6 -5 10 -11 10 -5 0 -7
-4 -4 -10z"/>
<path d="M3940 146 c0 -7 40 -14 44 -7 3 4 -6 8 -20 9 -13 1 -24 0 -24 -2z"/>
<path d="M2396 81 c-3 -5 1 -14 8 -20 10 -9 16 -9 21 -1 4 6 1 9 -7 8 -7 -2
-12 3 -10 10 2 14 -4 16 -12 3z"/>
<path d="M3931 53 c-1 -17 16 -25 25 -12 4 7 3 9 -4 5 -5 -3 -13 0 -15 6 -4 9
-6 10 -6 1z"/>
</g>
</svg>
